<svg width="30" height="30" viewBox="0 0 30 30" fill="none" xmlns="http://www.w3.org/2000/svg">
<path d="M0 12C0 5.37258 5.37258 0 12 0H18C24.6274 0 30 5.37258 30 12V18C30 24.6274 24.6274 30 18 30H12C5.37258 30 0 24.6274 0 18V12Z" fill="#FFCD1E"/>
<path d="M11.073 15.0006C11.073 14.6754 11.3371 14.4117 11.6628 14.4117H14.4098V11.6692C14.4098 11.3439 14.6739 11.0803 14.9997 11.0803C15.3255 11.0803 15.5896 11.3439 15.5896 11.6692V14.4117H18.3366C18.6624 14.4117 18.9265 14.6754 18.9265 15.0006C18.9265 15.3259 18.6624 15.5896 18.3366 15.5896H15.5896V18.3321C15.5896 18.6574 15.3255 18.921 14.9997 18.921C14.6739 18.921 14.4098 18.6574 14.4098 18.3321V15.5896H11.6628C11.3371 15.5896 11.073 15.3259 11.073 15.0006Z" fill="#1D1D1B"/>
<path fill-rule="evenodd" clip-rule="evenodd" d="M11.3163 8.53721C13.7446 8.26624 16.2547 8.26624 18.6831 8.53721C20.1195 8.6975 21.2796 9.82716 21.4485 11.2696C21.7389 13.7485 21.7389 16.2528 21.4485 18.7317C21.2796 20.1741 20.1195 21.3038 18.6831 21.4641C16.2547 21.7351 13.7447 21.7351 11.3163 21.4641C9.87981 21.3038 8.71979 20.1741 8.55081 18.7317C8.26041 16.2528 8.26041 13.7485 8.55081 11.2696C8.71979 9.82716 9.87981 8.6975 11.3163 8.53721ZM18.552 9.70777C16.2107 9.44652 13.7886 9.44652 11.4473 9.70777C10.5472 9.80821 9.82672 10.5175 9.72258 11.4064C9.44283 13.7944 9.44283 16.2069 9.72258 18.5949C9.82672 19.4838 10.5472 20.1931 11.4473 20.2935C13.7886 20.5548 16.2107 20.5548 18.552 20.2935C19.4521 20.1931 20.1726 19.4838 20.2768 18.5949C20.5565 16.2069 20.5565 13.7944 20.2768 11.4064C20.1726 10.5175 19.4521 9.80821 18.552 9.70777Z" fill="#1D1D1B"/>
</svg>
