<svg width="40" height="40" viewBox="0 0 40 40" fill="none" xmlns="http://www.w3.org/2000/svg">
<path d="M0 10C0 4.47715 4.47715 0 10 0H30C35.5228 0 40 4.47715 40 10V30C40 35.5228 35.5228 40 30 40H10C4.47715 40 0 35.5228 0 30V10Z" fill="#2A3238"/>
<path d="M19.0827 12.291C19.349 12.1019 19.6703 12 20 12C20.3298 12 20.651 12.1019 20.9174 12.291L27.5138 16.9722C28.3823 17.5875 27.9351 18.9229 26.8614 18.9255H13.1378C12.064 18.9229 11.6178 17.5875 12.4854 16.9722L19.0827 12.291ZM20.8889 15.6835C20.8889 15.4542 20.7953 15.2344 20.6286 15.0723C20.4619 14.9102 20.2358 14.8191 20 14.8191C19.7643 14.8191 19.5382 14.9102 19.3715 15.0723C19.2048 15.2344 19.1112 15.4542 19.1112 15.6835C19.1112 15.9127 19.2048 16.1325 19.3715 16.2946C19.5382 16.4567 19.7643 16.5478 20 16.5478C20.2358 16.5478 20.4619 16.4567 20.6286 16.2946C20.7953 16.1325 20.8889 15.9127 20.8889 15.6835Z" fill="#FFCD1E"/>
<path d="M19.3334 24.1106H17.5557V19.789H19.3334V24.1106Z" fill="#FFCD1E"/>
<path d="M22.4445 24.1106H20.6667V19.789H22.4445V24.1106Z" fill="#FFCD1E"/>
<path d="M25.7778 24.1106H23.7778V19.789H25.7778V24.1106Z" fill="#FFCD1E"/>
<path d="M26 24.9749H14C13.4696 24.9749 12.9609 25.1798 12.5858 25.5445C12.2107 25.9092 12 26.4038 12 26.9196V27.3518C12 27.7105 12.2987 28 12.6667 28H27.3333C27.5101 28 27.6797 27.9317 27.8047 27.8101C27.9298 27.6886 28 27.5237 28 27.3518V26.9196C28 26.4038 27.7893 25.9092 27.4142 25.5445C27.0391 25.1798 26.5304 24.9749 26 24.9749Z" fill="#FFCD1E"/>
<path d="M16.2222 24.1106H14.2222V19.789H16.2222V24.1106Z" fill="#FFCD1E"/>
</svg>
