<svg width="30" height="30" viewBox="0 0 30 30" fill="none" xmlns="http://www.w3.org/2000/svg">
<path d="M0 10C0 4.47715 4.47715 0 10 0H20C25.5229 0 30 4.47715 30 10V20C30 25.5229 25.5229 30 20 30H10C4.47715 30 0 25.5229 0 20V10Z" fill="#FFCD1E"/>
<path d="M17.6206 15.6844C17.6206 15.4012 17.386 15.1716 17.0964 15.1716H12.9029C12.6134 15.1716 12.3787 15.4012 12.3787 15.6844C12.3787 15.9676 12.6134 16.1972 12.9029 16.1972H17.0964C17.386 16.1972 17.6206 15.9676 17.6206 15.6844Z" fill="#1D1D1B"/>
<path d="M17.6206 18.4195C17.6206 18.1362 17.386 17.9066 17.0964 17.9066H12.9029C12.6134 17.9066 12.3787 18.1362 12.3787 18.4195C12.3787 18.7027 12.6134 18.9323 12.9029 18.9323H17.0964C17.386 18.9323 17.6206 18.7027 17.6206 18.4195Z" fill="#1D1D1B"/>
<path fill-rule="evenodd" clip-rule="evenodd" d="M11.5051 8.33398C10.4435 8.33398 9.58301 9.17584 9.58301 10.2143V19.787C9.58301 20.8255 10.4435 21.6673 11.5051 21.6673H18.4943C19.5558 21.6673 20.4163 20.8255 20.4163 19.787V12.2435C20.4163 11.9831 20.3295 11.7299 20.1691 11.5222L18.0739 8.80923C17.8427 8.50991 17.4815 8.33398 17.098 8.33398H11.5051ZM10.6314 10.2143C10.6314 9.74229 11.0225 9.35963 11.5051 9.35963H16.5723V12.3662C16.5723 12.6494 16.8069 12.879 17.0964 12.879H19.368V19.787C19.368 20.259 18.9768 20.6417 18.4943 20.6417H11.5051C11.0225 20.6417 10.6314 20.259 10.6314 19.787V10.2143Z" fill="#1D1D1B"/>
</svg>
