<svg width="30" height="30" viewBox="0 0 30 30" fill="none" xmlns="http://www.w3.org/2000/svg">
<path d="M0 10C0 4.47715 4.47715 0 10 0H20C25.5228 0 30 4.47715 30 10V20C30 25.5228 25.5228 30 20 30H10C4.47715 30 0 25.5228 0 20V10Z" fill="#3C3C3B"/>
<path d="M23.0319 8.64476C21.9607 8.20427 20.8115 7.98521 19.6534 8.00077C16.0767 8.00077 12.5001 9.80396 8.92347 9.80396C8.0134 9.81121 7.10769 9.67754 6.23851 9.40767C6.14254 9.3761 6.04231 9.35937 5.94128 9.35811C5.69597 9.35544 5.45951 9.4497 5.28328 9.62037C5.10704 9.79104 5.00527 10.0243 5.00007 10.2696V19.4936C4.99791 19.6733 5.04835 19.8497 5.14517 20.0011C5.24199 20.1524 5.38096 20.2722 5.54498 20.3456C6.61551 20.7892 7.76473 21.0117 8.92347 20.9995C12.5001 20.9995 16.0767 19.1865 19.6534 19.1865C20.564 19.1826 21.4697 19.3196 22.3383 19.5927C22.4369 19.6076 22.5371 19.6076 22.6356 19.5927C22.7606 19.6021 22.8863 19.5859 23.0049 19.5451C23.1235 19.5043 23.2325 19.4398 23.3252 19.3553C23.418 19.2709 23.4925 19.1685 23.5443 19.0543C23.5961 18.94 23.624 18.8165 23.6263 18.6911V9.46711C23.6174 9.28724 23.5564 9.11381 23.4509 8.96786C23.3454 8.82191 23.1999 8.70968 23.0319 8.64476ZM6.39704 10.9037C6.99481 11.049 7.6054 11.1353 8.22003 11.1613C8.13544 11.5827 7.90771 11.9619 7.57545 12.2346C7.24319 12.5072 6.82685 12.6566 6.39704 12.6574V10.9037ZM6.39704 19.1765V17.7895C6.87417 17.7941 7.33133 17.9817 7.67421 18.3135C8.0171 18.6453 8.21957 19.0961 8.23985 19.5728C7.6104 19.5252 6.99041 19.3919 6.39704 19.1765ZM14.3231 17.2842C13.7487 17.3967 13.1535 17.3286 12.6194 17.0892C12.0852 16.8497 11.6384 16.4508 11.3402 15.9471C11.042 15.4434 10.907 14.8597 10.954 14.2763C11.0009 13.6928 11.2274 13.1382 11.6023 12.6887C11.9771 12.2391 12.482 11.9167 13.0476 11.7658C13.6131 11.6148 14.2115 11.6427 14.7606 11.8456C15.3096 12.0484 15.7824 12.4164 16.1138 12.8988C16.4453 13.3813 16.6193 13.9545 16.6118 14.5398C16.6563 15.2085 16.4395 15.8684 16.007 16.3803C15.5745 16.8923 14.9601 17.2163 14.2934 17.2842H14.3231ZM22.2492 18.0966C21.7286 17.9699 21.1984 17.8871 20.664 17.8489C20.748 17.477 20.944 17.1399 21.2257 16.883C21.5075 16.626 21.8612 16.4618 22.2393 16.4123L22.2492 18.0966ZM22.2492 11.2406C21.8108 11.1844 21.4067 10.9742 21.109 10.6475C20.8114 10.3208 20.6396 9.89889 20.6243 9.45719C21.1786 9.51451 21.724 9.63756 22.2492 9.82377V11.2406Z" fill="#FFCD1E"/>
</svg>
