<svg width="30" height="30" viewBox="0 0 30 30" fill="none" xmlns="http://www.w3.org/2000/svg">
<path d="M0 10C0 4.47715 4.47715 0 10 0H20C25.5228 0 30 4.47715 30 10V20C30 25.5228 25.5228 30 20 30H10C4.47715 30 0 25.5228 0 20V10Z" fill="#3C3C3B"/>
<path d="M21.67 16.2392L22.9831 10.5517C23.0779 10.141 22.7609 9.75 22.3331 9.75H11.4224L11.1678 8.52473C11.1044 8.21932 10.8314 8 10.5147 8H7.66667C7.29847 8 7 8.29381 7 8.65625V9.09375C7 9.45619 7.29847 9.75 7.66667 9.75H9.60786L11.5592 19.1408C11.0924 19.4051 10.7778 19.9006 10.7778 20.4688C10.7778 21.3144 11.4742 22 12.3333 22C13.1924 22 13.8889 21.3144 13.8889 20.4688C13.8889 20.0402 13.7098 19.6529 13.4216 19.375H19.2451C18.9569 19.6529 18.7778 20.0402 18.7778 20.4688C18.7778 21.3144 19.4742 22 20.3333 22C21.1924 22 21.8889 21.3144 21.8889 20.4688C21.8889 19.8625 21.5309 19.3386 21.0117 19.0905L21.1649 18.4267C21.2598 18.016 20.9427 17.625 20.5149 17.625H13.0588L12.877 16.75H21.0199C21.3312 16.75 21.601 16.538 21.67 16.2392Z" fill="#FFCD1E"/>
</svg>
