<svg width="30" height="30" viewBox="0 0 30 30" fill="none" xmlns="http://www.w3.org/2000/svg">
<path d="M0 12C0 5.37258 5.37258 0 12 0H18C24.6274 0 30 5.37258 30 12V18C30 24.6274 24.6274 30 18 30H12C5.37258 30 0 24.6274 0 18V12Z" fill="#FFCD1E"/>
<path d="M14.84 8.35754C14.9457 8.32547 15.0581 8.32548 15.1639 8.35758L20.4169 9.95169C20.6633 10.0265 20.8327 10.2612 20.8327 10.5279V13.7971L20.0549 13.7955V10.6599L14.9993 9.15988L9.94379 10.6599V13.7955C9.94379 16.8808 12.1733 19.6056 14.9993 20.6599C15.0771 20.6308 15.1733 20.6007 15.2728 20.5695C15.4285 20.5207 15.5925 20.4693 15.708 20.4153H17.5296C17.3213 20.5833 17.2558 20.6214 17.1133 20.7041C17.0596 20.7353 16.995 20.7728 16.9077 20.826C16.3725 21.1522 15.7949 21.4241 15.1828 21.636C15.0642 21.6771 14.936 21.6771 14.8175 21.6361C11.4685 20.4772 9.16602 17.5181 9.16602 13.7955V10.5279C9.16602 10.2611 9.33548 10.0264 9.58199 9.95164L14.84 8.35754Z" fill="#2A3238"/>
<path d="M20.8327 15.7336V15.3322C20.8327 15.1634 20.7589 15.0015 20.6277 14.8821C20.4964 14.7628 20.3183 14.6957 20.1327 14.6957H19.4949V14.533C19.4876 14.4337 19.439 14.3406 19.359 14.2726C19.2791 14.2047 19.1737 14.1668 19.0642 14.1668C18.9547 14.1668 18.8494 14.2047 18.7694 14.2726C18.6894 14.3406 18.6409 14.4337 18.6335 14.533V14.6957H17.1985V14.533C17.1912 14.4337 17.1426 14.3406 17.0626 14.2726C16.9827 14.2047 16.8773 14.1668 16.7678 14.1668C16.6583 14.1668 16.553 14.2047 16.473 14.2726C16.393 14.3406 16.3445 14.4337 16.3371 14.533V14.6957H15.6993C15.5137 14.6957 15.3356 14.7628 15.2044 14.8821C15.0731 15.0015 14.9993 15.1634 14.9993 15.3322V15.7336H20.7744C20.7937 15.7319 20.8133 15.7319 20.8327 15.7336Z" fill="#2A3238"/>
<path fill-rule="evenodd" clip-rule="evenodd" d="M20.8327 16.2587C20.8133 16.2605 20.7937 16.2605 20.7744 16.2587H14.9993V19.3636C14.9993 19.5324 15.0731 19.6944 15.2044 19.8137C15.3356 19.9331 15.5137 20.0002 15.6993 20.0002H20.1327C20.3183 20.0002 20.4964 19.9331 20.6277 19.8137C20.7589 19.6944 20.8327 19.5324 20.8327 19.3636V16.2587ZM16.4663 18.4208C16.5114 18.4822 16.5355 18.5543 16.5355 18.6281C16.5355 18.727 16.4922 18.8219 16.4153 18.8919C16.3384 18.9618 16.234 19.0012 16.1252 19.0012C16.044 19.0012 15.9647 18.9793 15.8972 18.9383C15.8298 18.8973 15.7772 18.839 15.7461 18.7708C15.7151 18.7027 15.707 18.6277 15.7228 18.5553C15.7386 18.4829 15.7777 18.4164 15.8351 18.3643C15.8925 18.3121 15.9656 18.2766 16.0451 18.2622C16.1247 18.2478 16.2072 18.2552 16.2822 18.2834C16.3572 18.3116 16.4212 18.3595 16.4663 18.4208ZM16.4663 17.0947C16.5114 17.156 16.5355 17.2282 16.5355 17.302C16.5355 17.4009 16.4922 17.4958 16.4153 17.5658C16.3384 17.6357 16.234 17.675 16.1252 17.675C16.044 17.675 15.9647 17.6532 15.8972 17.6122C15.8298 17.5712 15.7772 17.5129 15.7461 17.4447C15.7151 17.3766 15.707 17.3015 15.7228 17.2292C15.7386 17.1568 15.7777 17.0903 15.8351 17.0382C15.8925 16.986 15.9656 16.9504 16.0451 16.936C16.1247 16.9217 16.2072 16.929 16.2822 16.9573C16.3572 16.9855 16.4212 17.0333 16.4663 17.0947ZM18.2571 18.4208C18.3022 18.4822 18.3263 18.5543 18.3263 18.6281C18.3263 18.727 18.2831 18.8219 18.2061 18.8919C18.1292 18.9618 18.0248 19.0012 17.916 19.0012C17.8349 19.0012 17.7555 18.9793 17.6881 18.9383C17.6206 18.8973 17.568 18.839 17.537 18.7708C17.5059 18.7027 17.4978 18.6277 17.5136 18.5553C17.5295 18.4829 17.5685 18.4164 17.6259 18.3643C17.6833 18.3121 17.7564 18.2766 17.836 18.2622C17.9156 18.2478 17.9981 18.2552 18.073 18.2834C18.148 18.3116 18.2121 18.3595 18.2571 18.4208ZM18.2571 17.0947C18.3022 17.156 18.3263 17.2282 18.3263 17.302C18.3263 17.4009 18.2831 17.4958 18.2061 17.5658C18.1292 17.6357 18.0248 17.675 17.916 17.675C17.8349 17.675 17.7555 17.6532 17.6881 17.6122C17.6206 17.5712 17.568 17.5129 17.537 17.4447C17.5059 17.3766 17.4978 17.3015 17.5136 17.2292C17.5295 17.1568 17.5685 17.0903 17.6259 17.0382C17.6833 16.986 17.7564 16.9504 17.836 16.936C17.9156 16.9217 17.9981 16.929 18.073 16.9573C18.148 16.9855 18.2121 17.0333 18.2571 17.0947ZM20.048 18.4208C20.0931 18.4822 20.1171 18.5543 20.1171 18.6281C20.1166 18.7269 20.0732 18.8215 19.9964 18.8914C19.9196 18.9612 19.8155 19.0007 19.7069 19.0012C19.6257 19.0012 19.5464 18.9793 19.4789 18.9383C19.4114 18.8973 19.3589 18.839 19.3278 18.7708C19.2967 18.7027 19.2886 18.6277 19.3045 18.5553C19.3203 18.4829 19.3594 18.4164 19.4167 18.3643C19.4741 18.3121 19.5472 18.2766 19.6268 18.2622C19.7064 18.2478 19.7889 18.2552 19.8639 18.2834C19.9388 18.3116 20.0029 18.3595 20.048 18.4208ZM20.048 17.0947C20.0931 17.156 20.1171 17.2282 20.1171 17.302C20.1166 17.4008 20.0732 17.4954 19.9964 17.5653C19.9196 17.6351 19.8155 17.6746 19.7069 17.675C19.6257 17.675 19.5464 17.6532 19.4789 17.6122C19.4114 17.5712 19.3589 17.5129 19.3278 17.4447C19.2967 17.3766 19.2886 17.3015 19.3045 17.2292C19.3203 17.1568 19.3594 17.0903 19.4167 17.0382C19.4741 16.986 19.5472 16.9504 19.6268 16.936C19.7064 16.9217 19.7889 16.929 19.8639 16.9573C19.9388 16.9855 20.0029 17.0333 20.048 17.0947Z" fill="#2A3238"/>
</svg>
