<svg width="40" height="40" viewBox="0 0 40 40" fill="none" xmlns="http://www.w3.org/2000/svg">
<path d="M0 10C0 4.47715 4.47715 0 10 0H30C35.5228 0 40 4.47715 40 10V30C40 35.5228 35.5228 40 30 40H10C4.47715 40 0 35.5228 0 30V10Z" fill="#2A3238"/>
<path d="M23.935 11H16.06C15.8383 11 15.6188 11.0438 15.414 11.1287C15.2093 11.2137 15.0233 11.3383 14.8668 11.4953C14.7102 11.6523 14.5862 11.8386 14.5018 12.0436C14.4174 12.2487 14.3743 12.4683 14.375 12.69V27.315C14.375 27.7619 14.5525 28.1905 14.8685 28.5065C15.1845 28.8225 15.6131 29 16.06 29H23.935C24.1567 29.0007 24.3763 28.9575 24.5814 28.8732C24.7864 28.7888 24.9727 28.6648 25.1297 28.5082C25.2867 28.3517 25.4113 28.1657 25.4963 27.961C25.5812 27.7562 25.625 27.5367 25.625 27.315V12.69C25.625 12.2418 25.4469 11.8119 25.13 11.495C24.8131 11.1781 24.3832 11 23.935 11ZM20 27.87C19.7775 27.87 19.56 27.804 19.375 27.6804C19.19 27.5568 19.0458 27.3811 18.9606 27.1755C18.8755 26.9699 18.8532 26.7437 18.8966 26.5255C18.94 26.3073 19.0472 26.1068 19.2045 25.9495C19.3618 25.7922 19.5623 25.685 19.7805 25.6416C19.9988 25.5982 20.225 25.6205 20.4305 25.7056C20.6361 25.7908 20.8118 25.935 20.9354 26.12C21.059 26.305 21.125 26.5225 21.125 26.745C21.125 27.0434 21.0065 27.3295 20.7955 27.5405C20.5845 27.7515 20.2984 27.87 20 27.87ZM23.935 24.075C23.9337 24.186 23.889 24.2921 23.8105 24.3705C23.7321 24.449 23.626 24.4937 23.515 24.495H16.485C16.3731 24.495 16.2658 24.4509 16.1862 24.3723C16.1067 24.2937 16.0613 24.1868 16.06 24.075V13.11C16.06 13.0544 16.071 12.9994 16.0924 12.9481C16.1139 12.8968 16.1453 12.8503 16.1848 12.8112C16.2243 12.7722 16.2712 12.7413 16.3227 12.7205C16.3743 12.6997 16.4294 12.6893 16.485 12.69H23.515C23.6264 12.69 23.7332 12.7343 23.812 12.813C23.8907 12.8918 23.935 12.9986 23.935 13.11V24.075Z" fill="#FFCD1E"/>
</svg>
