<svg width="30" height="30" viewBox="0 0 30 30" fill="none" xmlns="http://www.w3.org/2000/svg">
<path d="M0 10C0 4.47715 4.47715 0 10 0H20C25.5228 0 30 4.47715 30 10V20C30 25.5228 25.5228 30 20 30H10C4.47715 30 0 25.5228 0 20V10Z" fill="#3C3C3B"/>
<path d="M15 7C13.4178 7 11.871 7.46919 10.5554 8.34824C9.23985 9.22729 8.21447 10.4767 7.60897 11.9385C7.00347 13.4003 6.84504 15.0089 7.15372 16.5607C7.4624 18.1126 8.22433 19.538 9.34315 20.6569C10.462 21.7757 11.8874 22.5376 13.4393 22.8463C14.9911 23.155 16.5997 22.9965 18.0615 22.391C19.5233 21.7855 20.7727 20.7602 21.6518 19.4446C22.5308 18.129 23 16.5822 23 15C23 13.9494 22.7931 12.9091 22.391 11.9385C21.989 10.9679 21.3997 10.086 20.6569 9.34315C19.914 8.60028 19.0321 8.011 18.0615 7.60896C17.0909 7.20693 16.0506 7 15 7ZM18.0578 11.8889C18.0584 11.9132 18.0541 11.9374 18.0452 11.96C18.0363 11.9826 18.023 12.0032 18.006 12.0206C17.989 12.038 17.9687 12.0518 17.9463 12.0613C17.9239 12.0707 17.8999 12.0756 17.8756 12.0756H15.9156C16.2197 12.3691 16.4392 12.7391 16.5511 13.1467H17.8844C17.9328 13.1467 17.9791 13.1659 18.0133 13.2C18.0475 13.2342 18.0667 13.2806 18.0667 13.3289V14.2178C18.0673 14.2421 18.063 14.2663 18.0541 14.2889C18.0452 14.3115 18.0319 14.3321 18.0149 14.3495C17.9979 14.3669 17.9776 14.3807 17.9552 14.3902C17.9328 14.3996 17.9088 14.4044 17.8844 14.4044H16.6444C16.5797 15.0481 16.2789 15.645 15.8 16.08C15.2602 16.5273 14.5892 16.7863 13.8889 16.8178L16.3111 19.7289C16.3326 19.7561 16.3461 19.7888 16.35 19.8233C16.354 19.8577 16.3482 19.8926 16.3335 19.924C16.3187 19.9554 16.2955 19.982 16.2664 20.0009C16.2373 20.0199 16.2036 20.0303 16.1689 20.0311H14.5644C14.537 20.0305 14.51 20.0237 14.4854 20.0115C14.4608 19.9992 14.4392 19.9816 14.4222 19.96L11.96 16.9244C11.949 16.8882 11.949 16.8496 11.96 16.8133V15.7289C11.96 15.6794 11.9797 15.6319 12.0147 15.5969C12.0497 15.5619 12.0972 15.5422 12.1467 15.5422H13.2089C14.2311 15.5422 14.8237 15.1763 14.9867 14.4444H12.1244C12.0749 14.4444 12.0275 14.4248 11.9925 14.3898C11.9574 14.3548 11.9378 14.3073 11.9378 14.2578V13.3689C11.9378 13.3446 11.9426 13.3205 11.9521 13.2981C11.9615 13.2757 11.9753 13.2554 11.9927 13.2384C12.0101 13.2215 12.0307 13.2081 12.0533 13.1992C12.076 13.1903 12.1001 13.1861 12.1244 13.1867H14.9022C14.6356 12.4726 14.0548 12.1156 13.16 12.1156H12.1244C12.0781 12.11 12.0355 12.0873 12.0051 12.052C11.9746 12.0166 11.9586 11.9711 11.96 11.9244V11.0356C11.96 11.0112 11.9649 10.9872 11.9743 10.9648C11.9837 10.9424 11.9975 10.9221 12.0149 10.9051C12.0323 10.8881 12.0529 10.8748 12.0756 10.8659C12.0982 10.857 12.1224 10.8527 12.1467 10.8533H17.8756C17.9239 10.8533 17.9702 10.8725 18.0044 10.9067C18.0386 10.9409 18.0578 10.9872 18.0578 11.0356V11.8889Z" fill="#FFCD1E"/>
</svg>
