<svg width="30" height="30" viewBox="0 0 30 30" fill="none" xmlns="http://www.w3.org/2000/svg">
<path d="M0 10C0 4.47715 4.47715 0 10 0H20C25.5229 0 30 4.47715 30 10V20C30 25.5229 25.5229 30 20 30H10C4.47715 30 0 25.5229 0 20V10Z" fill="#FFCD1E"/>
<path d="M11.1548 10.2744C11.4067 10.0213 11.4067 9.61092 11.1548 9.35781C10.9028 9.10469 10.4944 9.10469 10.2424 9.35781L8.52197 11.0862C8.27002 11.3393 8.27002 11.7497 8.52197 12.0028L10.2424 13.7312C10.4944 13.9843 10.9028 13.9843 11.1548 13.7312C11.4067 13.4781 11.4067 13.0677 11.1548 12.8146L10.5357 12.1927H19.3007C19.6571 12.1927 19.9459 11.9025 19.9459 11.5445C19.9459 11.1865 19.6571 10.8964 19.3007 10.8964H10.5357L11.1548 10.2744Z" fill="#1D1D1B"/>
<path d="M18.8446 16.2714C18.5926 16.5245 18.5926 16.9349 18.8446 17.188L19.4636 17.8099H10.6986C10.3423 17.8099 10.0534 18.1001 10.0534 18.4581C10.0534 18.8161 10.3423 19.1062 10.6986 19.1062H19.4636L18.8446 19.7282C18.5926 19.9813 18.5926 20.3917 18.8446 20.6448C19.0965 20.8979 19.505 20.8979 19.7569 20.6448L21.4774 18.9164C21.7293 18.6633 21.7293 18.2529 21.4774 17.9998L19.7569 16.2714C19.505 16.0183 19.0965 16.0183 18.8446 16.2714Z" fill="#1D1D1B"/>
</svg>
