<svg width="40" height="40" viewBox="0 0 40 40" fill="none" xmlns="http://www.w3.org/2000/svg">
<path d="M0 10C0 4.47715 4.47715 0 10 0H30C35.5228 0 40 4.47715 40 10V30C40 35.5228 35.5228 40 30 40H10C4.47715 40 0 35.5228 0 30V10Z" fill="#2A3238"/>
<path transform="translate(6.674, 15.674)" fill-rule="evenodd" clip-rule="evenodd" d="M23.9902 7.68637L28.0004 3.95351L26.1009 0.0917969L23.9902 7.68637Z" fill="#097939"/>
<path transform="translate(6.674, 15.674)" fill-rule="evenodd" clip-rule="evenodd" d="M22.6387 7.68637L26.6488 3.95351L24.7493 0.0917969L22.6387 7.68637Z" fill="#ED752E"/>
<path transform="translate(6.674, 15.674)" fill-rule="evenodd" clip-rule="evenodd" d="M3.47449 0.134112L1.78609 6.26983L7.78005 6.31268L9.42645 0.134112H10.946L8.972 7.31697C8.8964 7.59126 8.60857 7.81411 8.32941 7.81411H0.646485C0.180565 7.81411 -0.0955148 7.44268 0.0304852 6.98554L1.91321 0.134112H3.47449ZM22.0054 0.0912554H23.525L21.4144 7.81411H19.852L22.0054 0.0912554ZM11.1151 3.30897L18.7132 3.26611L19.22 1.63554H11.4948L11.959 0.133827L20.191 0.0566839C20.7034 0.0518267 21.0086 0.456684 20.8737 0.961541L20.0981 3.85411C19.9628 4.35868 19.4373 4.76754 18.9249 4.76754H12.1282L11.3268 7.94268H9.8484L11.1151 3.30897Z" fill="white"/>
</svg>
