<svg width="40" height="40" viewBox="0 0 40 40" fill="none" xmlns="http://www.w3.org/2000/svg">
<path d="M0 10C0 4.47715 4.47715 0 10 0H30C35.5228 0 40 4.47715 40 10V30C40 35.5228 35.5228 40 30 40H10C4.47715 40 0 35.5228 0 30V10Z" fill="#2A3238"/>
<path d="M26.3833 13.6619L20.8861 11.1915C20.6072 11.0652 20.3051 11 19.9995 11C19.694 11 19.3918 11.0652 19.1129 11.1915L13.611 13.6619C13.3226 13.7918 13.0776 14.0036 12.9057 14.2716C12.7338 14.5395 12.6424 14.8521 12.6426 15.1715V19.0617C12.6426 23.6475 15.7818 27.9399 19.9972 29C24.2078 27.9588 27.3564 23.6664 27.3564 19.0617V15.1715C27.3568 14.8515 27.265 14.5382 27.0921 14.2701C26.9193 14.002 26.673 13.7906 26.3833 13.6619ZM24.3762 17.4952L19.3422 22.5874C19.2553 22.6754 19.1521 22.7452 19.0385 22.7929C18.9249 22.8405 18.8031 22.865 18.6802 22.865C18.5572 22.865 18.4355 22.8405 18.3219 22.7929C18.2083 22.7452 18.1051 22.6754 18.0182 22.5874L15.6228 20.1502C15.4491 19.9694 15.3534 19.7263 15.357 19.4742C15.3605 19.2222 15.4628 18.9818 15.6415 18.8061C15.8202 18.6304 16.0605 18.5337 16.3097 18.5372C16.5589 18.5408 16.7965 18.6443 16.9702 18.8251L18.7059 20.5808L23.0522 16.1559C23.2278 15.9783 23.4659 15.8785 23.7142 15.8785C23.9625 15.8785 24.2007 15.9783 24.3762 16.1559C24.5518 16.3335 24.6505 16.5744 24.6505 16.8256C24.6505 17.0767 24.5518 17.3176 24.3762 17.4952Z" fill="#FFCD1E"/>
</svg>
