<svg width="8" height="14" viewBox="0 0 8 14" fill="none" xmlns="http://www.w3.org/2000/svg">
<path d="M7.63758 13.6531C7.53122 13.7631 7.40494 13.8503 7.26595 13.9099C7.12695 13.9694 6.97798 14 6.82752 14C6.67707 14 6.52808 13.9694 6.38909 13.9099C6.2501 13.8503 6.12382 13.7631 6.01746 13.6531L0.333093 7.7649C0.125933 7.54959 0.00677978 7.26026 0.000280996 6.95672C-0.00621827 6.65318 0.100433 6.35867 0.298175 6.13411L5.88478 0.361327C5.98932 0.249509 6.11416 0.160049 6.25216 0.0980833C6.39015 0.0361165 6.53861 0.00285613 6.68905 0.000176315C6.83949 -0.00250445 6.98898 0.0254563 7.12896 0.0824699C7.26894 0.139484 7.39668 0.224429 7.50489 0.332457C7.61311 0.440485 7.69967 0.569488 7.75964 0.712085C7.81961 0.85468 7.8518 1.00807 7.8544 1.16352C7.85699 1.31898 7.82993 1.47344 7.77475 1.61809C7.71958 1.76274 7.63737 1.89475 7.53283 2.00657L2.77723 6.99281L7.66551 11.979C7.7715 12.0877 7.85563 12.217 7.91303 12.3594C7.97044 12.5018 8 12.6546 8 12.8089C8 12.9632 7.97044 13.1159 7.91303 13.2583C7.85563 13.4008 7.7715 13.53 7.66551 13.6387L7.63758 13.6531Z" fill="black"/>
</svg>
