<svg width="15" height="17" viewBox="0 0 15 17" fill="none" xmlns="http://www.w3.org/2000/svg">
<path d="M12.8421 0.500977H1.71167C1.40578 0.503424 1.11326 0.626656 0.897824 0.843825C0.682393 1.06099 0.561514 1.3545 0.561523 1.6604V12.5079C0.561523 12.8154 0.683676 13.1103 0.90111 13.3278C1.11854 13.5452 1.41345 13.6674 1.72094 13.6674H2.32384V16.0372C2.32331 16.1293 2.35022 16.2195 2.40114 16.2963C2.45206 16.373 2.52469 16.4329 2.60976 16.4682C2.69484 16.5035 2.78851 16.5127 2.87882 16.4946C2.96914 16.4765 3.05202 16.4319 3.11689 16.3665L5.81602 13.6674H12.8421C13.1496 13.6674 13.4445 13.5452 13.6619 13.3278C13.8794 13.1103 14.0015 12.8154 14.0015 12.5079V1.6604C14.0015 1.3529 13.8794 1.058 13.6619 0.840563C13.4445 0.623129 13.1496 0.500977 12.8421 0.500977ZM7.65254 11.0192C7.56996 11.1017 7.47144 11.1664 7.36299 11.2095C7.25454 11.2525 7.13845 11.273 7.02181 11.2697C6.903 11.2738 6.78457 11.2538 6.67375 11.2107C6.56293 11.1677 6.46203 11.1025 6.37718 11.0192C6.29322 10.9349 6.22763 10.8341 6.18453 10.7231C6.14143 10.6122 6.12175 10.4935 6.12674 10.3746C6.12244 10.2561 6.1429 10.1379 6.18682 10.0277C6.23074 9.91752 6.29715 9.81769 6.38181 9.7346C6.46766 9.65302 6.56884 9.58929 6.6795 9.5471C6.79015 9.5049 6.90808 9.48509 7.02645 9.4888C7.14418 9.48353 7.26171 9.50284 7.37157 9.54549C7.48142 9.58814 7.58119 9.6532 7.66452 9.73653C7.74785 9.81986 7.81291 9.91963 7.85556 10.0295C7.89821 10.1393 7.91752 10.2569 7.91225 10.3746C7.91492 10.494 7.89328 10.6128 7.84863 10.7236C7.80399 10.8344 7.73727 10.935 7.65254 11.0192ZM9.83689 5.62098C9.7219 5.86587 9.56494 6.08875 9.37312 6.27953C9.15472 6.48601 8.92058 6.67518 8.67283 6.84532C8.43659 7.00836 8.21612 7.19313 8.01428 7.39721C7.87317 7.55513 7.79697 7.76054 7.80094 7.97228V8.40359C7.80136 8.4432 7.7864 8.48144 7.75921 8.51025C7.72897 8.53815 7.68903 8.55313 7.6479 8.55199H6.48848C6.44735 8.55313 6.40741 8.53815 6.37718 8.51025C6.34998 8.48144 6.33502 8.4432 6.33544 8.40359V7.88417C6.31905 7.53285 6.42565 7.18681 6.63689 6.90561C6.89587 6.60505 7.19196 6.33857 7.51805 6.11257C7.79675 5.92217 8.05204 5.69957 8.27863 5.44938C8.4493 5.24239 8.53837 4.98011 8.52906 4.71199C8.53524 4.56294 8.50805 4.41438 8.44948 4.27718C8.39091 4.13997 8.30243 4.01759 8.19051 3.91895C7.93674 3.71378 7.61684 3.60824 7.2908 3.62214C6.95323 3.60872 6.62269 3.7211 6.36326 3.9375C6.24839 4.03849 6.15723 4.1636 6.0963 4.30389C6.03538 4.44419 6.00618 4.59621 6.0108 4.74909V5.01344C6.0108 5.10619 5.95978 5.15257 5.85776 5.15257L4.69834 5.10156C4.67712 5.10211 4.65606 5.09779 4.63677 5.08895C4.61748 5.08011 4.60046 5.06697 4.58703 5.05054C4.55993 5.01982 4.54508 4.9802 4.54529 4.93924V4.74909C4.53675 4.29589 4.65913 3.84984 4.89776 3.46446C5.13839 3.08663 5.48079 2.78441 5.88558 2.59257C6.33949 2.37985 6.83597 2.27358 7.33718 2.28185C8.04993 2.2463 8.75005 2.47967 9.29892 2.93576C9.54091 3.15134 9.73214 3.41786 9.85884 3.71616C9.98554 4.01447 10.0446 4.33714 10.0317 4.66098C10.0401 4.99158 9.9735 5.3198 9.83689 5.62098Z" fill="#3C3C3B"/>
</svg>
