<svg width="15" height="16" viewBox="0 0 15 16" fill="none" xmlns="http://www.w3.org/2000/svg">
<path d="M7.5 0.5C6.01664 0.5 4.56659 0.939867 3.33323 1.76398C2.09986 2.58809 1.13856 3.75943 0.570907 5.12987C0.00324959 6.50032 -0.145275 8.00832 0.144114 9.46317C0.433503 10.918 1.14781 12.2544 2.1967 13.3033C3.2456 14.3522 4.58197 15.0665 6.03682 15.3559C7.49168 15.6453 8.99968 15.4967 10.3701 14.9291C11.7406 14.3614 12.9119 13.4001 13.736 12.1668C14.5601 10.9334 15 9.48336 15 8C15 7.01508 14.806 6.03981 14.4291 5.12987C14.0522 4.21993 13.4997 3.39314 12.8033 2.6967C12.1069 2.00026 11.2801 1.44781 10.3701 1.0709C9.46019 0.693993 8.48491 0.5 7.5 0.5ZM12.2917 8.5125C12.2917 8.58199 12.278 8.6508 12.2514 8.715C12.2248 8.7792 12.1858 8.83754 12.1367 8.88667C12.0875 8.93581 12.0292 8.97479 11.965 9.00138C11.9008 9.02798 11.832 9.04167 11.7625 9.04167H3.23334C3.16404 9.04167 3.09543 9.02795 3.03146 9.00131C2.96749 8.97466 2.90943 8.93562 2.86062 8.88643C2.81182 8.83723 2.77323 8.77886 2.7471 8.71469C2.72096 8.65051 2.70779 8.58179 2.70834 8.5125V7.4875C2.70779 7.4182 2.72096 7.34949 2.7471 7.28531C2.77323 7.22113 2.81182 7.16276 2.86062 7.11357C2.90943 7.06438 2.96749 7.02533 3.03146 6.99869C3.09543 6.97205 3.16404 6.95833 3.23334 6.95833H11.7625C11.832 6.95833 11.9008 6.97202 11.965 6.99861C12.0292 7.02521 12.0875 7.06418 12.1367 7.11332C12.1858 7.16246 12.2248 7.22079 12.2514 7.285C12.278 7.3492 12.2917 7.41801 12.2917 7.4875V8.5125Z" fill="#1D1D1B"/>
</svg>
