<svg width="12" height="17" viewBox="0 0 12 17" fill="none" xmlns="http://www.w3.org/2000/svg">
<path d="M9 8.00195H3V10.002H9V8.00195ZM11.7812 3.2832L8.72188 0.220703C8.58125 0.0800781 8.39063 0.00195312 8.19063 0.00195312H8V4.00195H12V3.81133C12 3.61445 11.9219 3.42383 11.7812 3.2832ZM7 4.25195V0.00195312H0.75C0.334375 0.00195312 0 0.336328 0 0.751953V15.252C0 15.6676 0.334375 16.002 0.75 16.002H11.25C11.6656 16.002 12 15.6676 12 15.252V5.00195H7.75C7.3375 5.00195 7 4.66445 7 4.25195ZM2 2.25195C2 2.11383 2.11187 2.00195 2.25 2.00195H4.75C4.88813 2.00195 5 2.11383 5 2.25195V2.75195C5 2.89008 4.88813 3.00195 4.75 3.00195H2.25C2.11187 3.00195 2 2.89008 2 2.75195V2.25195ZM2 4.25195C2 4.11383 2.11187 4.00195 2.25 4.00195H4.75C4.88813 4.00195 5 4.11383 5 4.25195V4.75195C5 4.89008 4.88813 5.00195 4.75 5.00195H2.25C2.11187 5.00195 2 4.89008 2 4.75195V4.25195ZM10 13.752C10 13.8901 9.88813 14.002 9.75 14.002H7.25C7.11187 14.002 7 13.8901 7 13.752V13.252C7 13.1138 7.11187 13.002 7.25 13.002H9.75C9.88813 13.002 10 13.1138 10 13.252V13.752ZM10 7.50195V10.502C10 10.7782 9.77625 11.002 9.5 11.002H2.5C2.22375 11.002 2 10.7782 2 10.502V7.50195C2 7.2257 2.22375 7.00195 2.5 7.00195H9.5C9.77625 7.00195 10 7.2257 10 7.50195Z" fill="#3C3C3B"/>
</svg>
