<svg width="11" height="15" viewBox="0 0 11 15" fill="none" xmlns="http://www.w3.org/2000/svg">
<path d="M5.29835 0.00932884C4.29811 -0.0302611 3.30516 0.195117 2.42002 0.662633C1.53488 1.13015 0.788959 1.82323 0.25777 2.67169C0.152948 2.82049 0.109629 3.00403 0.136851 3.184C0.164073 3.36397 0.259734 3.52646 0.403874 3.6376L1.67011 4.59539C1.81727 4.7034 2.00021 4.75095 2.18135 4.72831C2.36249 4.70566 2.52808 4.61453 2.64413 4.47361C3.38277 3.54829 3.9266 3.02071 5.0792 3.02071C5.98017 3.02071 7.09219 3.60511 7.09219 4.47361C7.09219 5.1392 6.54835 5.47202 5.6555 5.97527C4.61653 6.55968 3.22043 7.28206 3.22043 9.09212V9.37624C3.22043 9.56353 3.29483 9.74314 3.42727 9.87557C3.5597 10.008 3.73931 10.0824 3.9266 10.0824H6.03699C6.22221 10.0782 6.39855 10.0022 6.52879 9.87042C6.65903 9.73866 6.73299 9.5615 6.73504 9.37624V9.20577C6.73504 7.95577 10.4039 7.89897 10.4039 4.50611C10.4363 1.9493 7.78212 0.00932884 5.29835 0.00932884ZM5.00615 10.9347C4.60481 10.9347 4.21247 11.0537 3.87877 11.2767C3.54507 11.4996 3.28498 11.8165 3.13139 12.1873C2.9778 12.5581 2.93762 12.9661 3.01592 13.3598C3.09421 13.7534 3.28748 14.115 3.57127 14.3988C3.85506 14.6826 4.21663 14.8758 4.61026 14.9541C5.00389 15.0324 5.4119 14.9922 5.78269 14.8386C6.15348 14.6851 6.47041 14.425 6.69338 14.0913C6.91636 13.7576 7.03537 13.3652 7.03537 12.9639C7.03537 12.4257 6.82157 11.9096 6.44102 11.529C6.06047 11.1485 5.54433 10.9347 5.00615 10.9347Z" fill="#3C3C3B"/>
</svg>
