<svg width="16" height="15" viewBox="0 0 16 15" fill="none" xmlns="http://www.w3.org/2000/svg">
<path d="M8 0C6.51664 0 5.06659 0.439867 3.83323 1.26398C2.59986 2.08809 1.63856 3.25943 1.07091 4.62987C0.50325 6.00032 0.354725 7.50832 0.644114 8.96317C0.933503 10.418 1.64781 11.7544 2.6967 12.8033C3.7456 13.8522 5.08197 14.5665 6.53682 14.8559C7.99168 15.1453 9.49968 14.9967 10.8701 14.4291C12.2406 13.8614 13.4119 12.9001 14.236 11.6668C15.0601 10.4334 15.5 8.98336 15.5 7.5C15.5 6.51508 15.306 5.53981 14.9291 4.62987C14.5522 3.71993 13.9997 2.89314 13.3033 2.1967C12.6069 1.50026 11.7801 0.947814 10.8701 0.570903C9.96019 0.193993 8.98491 0 8 0ZM11.4792 8.36666H8.93333V10.9083C8.94155 11.0264 8.9254 11.1448 8.88588 11.2563C8.84636 11.3678 8.78433 11.47 8.70362 11.5566C8.62292 11.6431 8.52528 11.7121 8.41678 11.7592C8.30828 11.8064 8.19123 11.8307 8.07292 11.8307C7.95461 11.8307 7.83756 11.8064 7.72906 11.7592C7.62055 11.7121 7.52291 11.6431 7.44221 11.5566C7.36151 11.47 7.29947 11.3678 7.25995 11.2563C7.22044 11.1448 7.20428 11.0264 7.2125 10.9083V8.36666H4.67084C4.55281 8.37488 4.43435 8.35873 4.32284 8.31921C4.21132 8.27969 4.10912 8.21766 4.02261 8.13695C3.93609 8.05625 3.8671 7.95861 3.81993 7.85011C3.77277 7.74161 3.74842 7.62456 3.74842 7.50625C3.74842 7.38794 3.77277 7.27089 3.81993 7.16239C3.8671 7.05388 3.93609 6.95624 4.02261 6.87554C4.10912 6.79484 4.21132 6.7328 4.32284 6.69328C4.43435 6.65377 4.55281 6.63761 4.67084 6.64583H7.23334V4.09583C7.2485 3.87798 7.34575 3.674 7.50543 3.52504C7.66512 3.37608 7.87537 3.29324 8.09375 3.29324C8.31213 3.29324 8.52238 3.37608 8.68207 3.52504C8.84176 3.674 8.939 3.87798 8.95417 4.09583V6.64167H11.5C11.7179 6.65683 11.9218 6.75408 12.0708 6.91377C12.2198 7.07345 12.3026 7.2837 12.3026 7.50208C12.3026 7.72046 12.2198 7.93071 12.0708 8.0904C11.9218 8.25009 11.7179 8.34733 11.5 8.3625L11.4792 8.36666Z" fill="#1D1D1B"/>
</svg>
