<svg width="14" height="17" viewBox="0 0 14 17" fill="none" xmlns="http://www.w3.org/2000/svg">
<path d="M13.0667 0.100842L11.6667 1.50084L9.68333 0.100842C9.5826 0.0354455 9.4597 5.34748e-05 9.33333 5.34748e-05C9.20697 5.34748e-05 9.08406 0.0354455 8.98333 0.100842L7 1.50084L5.01667 0.100842C4.91593 0.0354455 4.79303 5.34748e-05 4.66667 5.34748e-05C4.5403 5.34748e-05 4.4174 0.0354455 4.31667 0.100842L2.33333 1.50084L0.933333 0.100842C0.546875 -0.146033 0 0.0883417 0 0.500842V15.5008C0 15.9133 0.546875 16.1477 0.933333 15.9008L2.33333 14.5008L4.31667 15.9008C4.4174 15.9662 4.5403 16.0016 4.66667 16.0016C4.79303 16.0016 4.91593 15.9662 5.01667 15.9008L7 14.5008L8.98333 15.9008C9.08406 15.9662 9.20697 16.0016 9.33333 16.0016C9.4597 16.0016 9.5826 15.9662 9.68333 15.9008L11.6667 14.5008L13.0667 15.9008C13.4495 16.1477 14 15.9133 14 15.5008V0.500842C14 0.0883417 13.4531 -0.146033 13.0667 0.100842ZM11.6667 11.2508C11.6667 11.3883 11.5354 11.5008 11.375 11.5008H2.625C2.46458 11.5008 2.33333 11.3883 2.33333 11.2508V10.7508C2.33333 10.6133 2.46458 10.5008 2.625 10.5008H11.375C11.5354 10.5008 11.6667 10.6133 11.6667 10.7508V11.2508ZM11.6667 8.25084C11.6667 8.38834 11.5354 8.50084 11.375 8.50084H2.625C2.46458 8.50084 2.33333 8.38834 2.33333 8.25084V7.75084C2.33333 7.61334 2.46458 7.50084 2.625 7.50084H11.375C11.5354 7.50084 11.6667 7.61334 11.6667 7.75084V8.25084ZM11.6667 5.25084C11.6667 5.38834 11.5354 5.50084 11.375 5.50084H2.625C2.46458 5.50084 2.33333 5.38834 2.33333 5.25084V4.75084C2.33333 4.61334 2.46458 4.50084 2.625 4.50084H11.375C11.5354 4.50084 11.6667 4.61334 11.6667 4.75084V5.25084Z" fill="#3C3C3B"/>
</svg>
