<svg width="17" height="16" viewBox="0 0 17 16" fill="none" xmlns="http://www.w3.org/2000/svg">
<path d="M15.3411 5.04169L11.0525 4.41346L9.13286 0.534926C9.07928 0.422997 9.00402 0.322813 8.91144 0.240177C8.81887 0.15754 8.71081 0.0940906 8.59354 0.0535119C8.47627 0.0129333 8.35211 -0.0039637 8.22826 0.00378342C8.1044 0.0115305 7.98332 0.0437708 7.87202 0.098647C7.68195 0.191276 7.52837 0.344862 7.43574 0.534926L5.51611 4.41346L1.22748 5.03733C0.984677 5.07712 0.767059 5.21029 0.621133 5.40839C0.475208 5.60649 0.412547 5.8538 0.446541 6.09749C0.477548 6.3027 0.573944 6.49242 0.721399 6.63847L3.82334 9.65316L3.09039 13.9156C3.04863 14.1614 3.10598 14.4138 3.24991 14.6174C3.39383 14.821 3.61258 14.9593 3.85825 15.002H4.01531C4.16743 15.0015 4.31716 14.9641 4.45159 14.8929L8.29085 12.8773L12.1257 14.8929C12.3463 15.0084 12.6036 15.032 12.8415 14.9584C13.0794 14.8849 13.2785 14.7201 13.3953 14.5002C13.4919 14.3169 13.5256 14.1069 13.4913 13.9025L12.7583 9.64008L15.8603 6.62538C16.0309 6.45024 16.1263 6.21543 16.1263 5.97096C16.1263 5.7265 16.0309 5.49169 15.8603 5.31654C15.716 5.16915 15.5276 5.07268 15.3237 5.04169H15.3411Z" fill="#3C3C3B"/>
</svg>
