<svg width="12" height="16" viewBox="0 0 12 16" fill="none" xmlns="http://www.w3.org/2000/svg">
<path d="M9.84444 1.87603H7.52593C7.52593 1.37899 7.32848 0.90232 6.97702 0.550863C6.62556 0.199406 6.14889 0.00195312 5.65185 0.00195313C5.15482 0.00195312 4.67814 0.199406 4.32668 0.550863C3.97523 0.90232 3.77778 1.37899 3.77778 1.87603H1.40741C1.03414 1.87603 0.676159 2.0243 0.412219 2.28824C0.148279 2.55218 0 2.91016 0 3.28343V13.5946C0 13.9678 0.148279 14.3258 0.412219 14.5897C0.676159 14.8537 1.03414 15.002 1.40741 15.002H9.84444C10.2177 15.002 10.5757 14.8537 10.8396 14.5897C11.1036 14.3258 11.2519 13.9678 11.2519 13.5946V3.28343C11.2519 2.91016 11.1036 2.55218 10.8396 2.28824C10.5757 2.0243 10.2177 1.87603 9.84444 1.87603ZM2.81481 12.4538C2.67744 12.4466 2.54521 12.3992 2.43446 12.3176C2.32371 12.236 2.2393 12.1238 2.19167 11.9947C2.14405 11.8657 2.13529 11.7255 2.16648 11.5915C2.19767 11.4575 2.26745 11.3356 2.36718 11.2409C2.46691 11.1462 2.59222 11.0827 2.72762 11.0584C2.86302 11.0341 3.00257 11.0501 3.12901 11.1042C3.25545 11.1584 3.36324 11.2485 3.43905 11.3633C3.51486 11.478 3.55536 11.6125 3.55555 11.7501C3.55677 11.846 3.53816 11.9412 3.50087 12.0295C3.46359 12.1179 3.40844 12.1977 3.33889 12.2637C3.26934 12.3298 3.18688 12.3808 3.0967 12.4135C3.00652 12.4462 2.91055 12.4599 2.81481 12.4538ZM2.81481 9.639C2.67908 9.63164 2.54837 9.58513 2.4385 9.50508C2.32863 9.42503 2.2443 9.31488 2.1957 9.18792C2.14709 9.06097 2.1363 8.92266 2.16462 8.7897C2.19294 8.65675 2.25917 8.53485 2.35529 8.43873C2.45141 8.34261 2.57332 8.27637 2.70627 8.24805C2.83923 8.21973 2.97754 8.23053 3.10449 8.27913C3.23144 8.32774 3.3416 8.41207 3.42164 8.52194C3.50169 8.63181 3.5482 8.76252 3.55555 8.89826C3.55575 8.99356 3.53638 9.08787 3.49864 9.17538C3.4609 9.26289 3.4056 9.34174 3.33616 9.40702C3.26672 9.47229 3.18462 9.5226 3.09494 9.55486C3.00527 9.58712 2.90992 9.60064 2.81481 9.59455V9.639ZM2.81481 6.83158C2.67744 6.82434 2.54521 6.777 2.43446 6.69541C2.32371 6.61381 2.2393 6.50156 2.19167 6.37251C2.14405 6.24346 2.13529 6.10327 2.16648 5.96929C2.19767 5.83532 2.26745 5.7134 2.36718 5.61866C2.46691 5.52391 2.59222 5.46049 2.72762 5.43621C2.86302 5.41192 3.00257 5.42785 3.12901 5.48203C3.25545 5.53621 3.36324 5.62626 3.43905 5.74104C3.51486 5.85583 3.55536 5.99031 3.55555 6.12787C3.54604 6.31784 3.46383 6.49688 3.32593 6.62788C3.18803 6.75889 3.00502 6.83182 2.81481 6.83158ZM5.62963 1.20195C5.81627 1.20195 5.99525 1.2761 6.12722 1.40807C6.25919 1.54004 6.33333 1.71903 6.33333 1.90566C6.33333 2.0923 6.25919 2.27129 6.12722 2.40326C5.99525 2.53523 5.81627 2.60935 5.62963 2.60935C5.5339 2.61548 5.43792 2.60177 5.34774 2.56907C5.25756 2.53636 5.1751 2.48538 5.10555 2.41931C5.036 2.35323 4.98086 2.2735 4.94357 2.18511C4.90629 2.09672 4.88767 2.00159 4.88889 1.90566C4.88855 1.71667 4.96046 1.5347 5.08991 1.39699C5.21935 1.25928 5.39653 1.17626 5.58518 1.16492L5.62963 1.20195ZM9.37778 11.9871C9.37592 12.0494 9.35035 12.1086 9.30629 12.1527C9.26224 12.1968 9.20302 12.2223 9.14074 12.2242H4.92592C4.86365 12.2223 4.80443 12.1968 4.76038 12.1527C4.71632 12.1086 4.69075 12.0494 4.68889 11.9871V11.5205C4.68889 11.4576 4.71386 11.3973 4.75831 11.3529C4.80277 11.3084 4.86306 11.2834 4.92592 11.2834H9.14074C9.20361 11.2834 9.2639 11.3084 9.30835 11.3529C9.3528 11.3973 9.37778 11.4576 9.37778 11.5205V11.9871ZM9.37778 9.17233C9.37778 9.23519 9.3528 9.29547 9.30835 9.33992C9.2639 9.38438 9.20361 9.40937 9.14074 9.40937H4.92592C4.86306 9.40937 4.80277 9.38438 4.75831 9.33992C4.71386 9.29547 4.68889 9.23519 4.68889 9.17233V8.70566C4.68889 8.64279 4.71386 8.58249 4.75831 8.53804C4.80277 8.49358 4.86306 8.46861 4.92592 8.46861H9.14074C9.20361 8.46861 9.2639 8.49358 9.30835 8.53804C9.3528 8.58249 9.37778 8.64279 9.37778 8.70566V9.17233ZM9.37778 6.3575C9.37778 6.42036 9.3528 6.48067 9.30835 6.52512C9.2639 6.56957 9.20361 6.59454 9.14074 6.59454H4.92592C4.89515 6.59553 4.86449 6.59033 4.83577 6.57924C4.80705 6.56814 4.78086 6.55138 4.75874 6.52996C4.73663 6.50853 4.71905 6.4829 4.70705 6.45454C4.69505 6.42619 4.68887 6.3957 4.68889 6.36491V5.89085C4.68887 5.86006 4.69505 5.82957 4.70705 5.80122C4.71905 5.77287 4.73663 5.74721 4.75874 5.72578C4.78086 5.70436 4.80705 5.68762 4.83577 5.67653C4.86449 5.66543 4.89515 5.66021 4.92592 5.6612H9.14074C9.17151 5.66021 9.20217 5.66543 9.23089 5.67653C9.25961 5.68762 9.28581 5.70436 9.30792 5.72578C9.33003 5.74721 9.34762 5.77287 9.35962 5.80122C9.37162 5.82957 9.37779 5.86006 9.37778 5.89085V6.3575Z" fill="#3C3C3B"/>
</svg>
