<svg width="14" height="14" viewBox="0 0 14 14" fill="none" xmlns="http://www.w3.org/2000/svg">
<path d="M0 5.99001H6.0025V0H0V5.99001ZM2.00083 1.99667H4.00167V4.02244H2.00083V1.99667ZM7.9975 0V5.99001H14V0H7.9975ZM11.9992 3.99334H9.99833V1.99667H11.9992V3.99334ZM0 13.9709H6.0025V7.98668H0V13.9709ZM2.00083 9.98335H4.00167V11.9742H2.00083V9.98335ZM13.0025 7.98668H14V11.9742H11.0017V11.0079H9.99833V14H7.9975V7.98668H11.0017V8.98212H13.0025V7.98668ZM13.0025 12.9755H14V13.9709H13.0025V12.9755ZM11.0017 12.9755H11.9992V13.9709H11.0017V12.9755Z" fill="#3C3C3B"/>
</svg>
