<svg width="14" height="16" viewBox="0 0 14 16" fill="none" xmlns="http://www.w3.org/2000/svg">
<path d="M13.8197 3.49676V4.52885C13.7744 4.52439 13.7287 4.52439 13.6833 4.52885H0.179688V3.49676C0.179688 3.06265 0.352136 2.64632 0.659097 2.33936C0.966057 2.0324 1.38239 1.85995 1.81649 1.85995H3.3078V1.44166C3.32497 1.18625 3.43854 0.946915 3.62552 0.772087C3.8125 0.597258 4.05891 0.5 4.31489 0.5C4.57087 0.5 4.81729 0.597258 5.00427 0.772087C5.19125 0.946915 5.30481 1.18625 5.32198 1.44166V1.85995H8.67744V1.44166C8.69461 1.18625 8.80817 0.946915 8.99515 0.772087C9.18213 0.597258 9.42855 0.5 9.68453 0.5C9.94051 0.5 10.1869 0.597258 10.3739 0.772087C10.5609 0.946915 10.6744 1.18625 10.6916 1.44166V1.85995H12.1829C12.617 1.85995 13.0334 2.0324 13.3403 2.33936C13.6473 2.64632 13.8197 3.06265 13.8197 3.49676ZM13.6833 5.87922C13.7287 5.88369 13.7744 5.88369 13.8197 5.87922V13.8632C13.8197 14.2973 13.6473 14.7136 13.3403 15.0206C13.0334 15.3276 12.617 15.5 12.1829 15.5H1.81649C1.38239 15.5 0.966057 15.3276 0.659097 15.0206C0.352136 14.7136 0.179688 14.2973 0.179688 13.8632V5.87922H13.6833ZM3.77157 11.9718C3.77157 11.782 3.7153 11.5966 3.60989 11.4388C3.50447 11.281 3.35464 11.1581 3.17934 11.0855C3.00405 11.0128 2.81115 10.9938 2.62506 11.0309C2.43896 11.0679 2.26802 11.1592 2.13385 11.2934C1.99969 11.4276 1.90832 11.5985 1.8713 11.7846C1.83428 11.9707 1.85328 12.1636 1.92589 12.3389C1.9985 12.5142 2.12147 12.664 2.27923 12.7694C2.43699 12.8749 2.62247 12.9311 2.81222 12.9311C3.06665 12.9311 3.31067 12.83 3.49058 12.6501C3.67049 12.4702 3.77157 12.2262 3.77157 11.9718ZM3.77157 8.56176C3.77157 8.37202 3.7153 8.18654 3.60989 8.02878C3.50447 7.87101 3.35464 7.74805 3.17934 7.67544C3.00405 7.60283 2.81115 7.58383 2.62506 7.62085C2.43896 7.65786 2.26802 7.74923 2.13385 7.8834C1.99969 8.01757 1.90832 8.18851 1.8713 8.3746C1.83428 8.5607 1.85328 8.75359 1.92589 8.92889C1.9985 9.10419 2.12147 9.25402 2.27923 9.35943C2.43699 9.46485 2.62247 9.52111 2.81222 9.52111C3.06665 9.52111 3.31067 9.42004 3.49058 9.24013C3.67049 9.06021 3.77157 8.8162 3.77157 8.56176ZM7.95906 11.9718C7.95906 11.782 7.9028 11.5966 7.79738 11.4388C7.69197 11.281 7.54214 11.1581 7.36684 11.0855C7.19154 11.0128 6.99865 10.9938 6.81255 11.0309C6.62645 11.0679 6.45552 11.1592 6.32135 11.2934C6.18718 11.4276 6.09581 11.5985 6.05879 11.7846C6.02178 11.9707 6.04078 12.1636 6.11339 12.3389C6.186 12.5142 6.30896 12.664 6.46672 12.7694C6.62449 12.8749 6.80997 12.9311 6.99971 12.9311C7.25415 12.9311 7.49816 12.83 7.67807 12.6501C7.85799 12.4702 7.95906 12.2262 7.95906 11.9718ZM7.95906 8.56176C7.95906 8.37202 7.9028 8.18654 7.79738 8.02878C7.69197 7.87101 7.54214 7.74805 7.36684 7.67544C7.19154 7.60283 6.99865 7.58383 6.81255 7.62085C6.62645 7.65786 6.45552 7.74923 6.32135 7.8834C6.18718 8.01757 6.09581 8.18851 6.05879 8.3746C6.02178 8.5607 6.04078 8.75359 6.11339 8.92889C6.186 9.10419 6.30896 9.25402 6.46672 9.35943C6.62449 9.46485 6.80997 9.52111 6.99971 9.52111C7.25415 9.52111 7.49816 9.42004 7.67807 9.24013C7.85799 9.06021 7.95906 8.8162 7.95906 8.56176ZM12.1466 11.9718C12.1466 11.782 12.0903 11.5966 11.9849 11.4388C11.8795 11.281 11.7296 11.1581 11.5543 11.0855C11.379 11.0128 11.1861 10.9938 11 11.0309C10.8139 11.0679 10.643 11.1592 10.5088 11.2934C10.3747 11.4276 10.2833 11.5985 10.2463 11.7846C10.2093 11.9707 10.2283 12.1636 10.3009 12.3389C10.3735 12.5142 10.4965 12.664 10.6542 12.7694C10.812 12.8749 10.9975 12.9311 11.1872 12.9311C11.4413 12.9299 11.6846 12.8285 11.8642 12.6488C12.0439 12.4692 12.1454 12.2258 12.1466 11.9718ZM12.1466 8.56176C12.1466 8.37202 12.0903 8.18654 11.9849 8.02878C11.8795 7.87101 11.7296 7.74805 11.5543 7.67544C11.379 7.60283 11.1861 7.58383 11 7.62085C10.8139 7.65786 10.643 7.74923 10.5088 7.8834C10.3747 8.01757 10.2833 8.18851 10.2463 8.3746C10.2093 8.5607 10.2283 8.75359 10.3009 8.92889C10.3735 9.10419 10.4965 9.25402 10.6542 9.35943C10.812 9.46485 10.9975 9.52111 11.1872 9.52111C11.4413 9.51992 11.6846 9.41846 11.8642 9.2388C12.0439 9.05915 12.1454 8.81583 12.1466 8.56176Z" fill="#3C3C3B"/>
</svg>
