<svg xmlns="http://www.w3.org/2000/svg" xmlns:xlink="http://www.w3.org/1999/xlink" width="20" height="19" viewBox="0 0 20 19">
    <defs>
        <path id="1t0241yjpa" d="M0 0.028L11.22 0.028 11.22 11.249 0 11.249z"/>
        <path id="mz8j9e9qoc" d="M0.029 0.024L11.248 0.024 11.248 11.245 0.029 11.245z"/>
    </defs>
    <g fill="none" fill-rule="evenodd">
        <g>
            <g>
                <g>
                    <g transform="translate(-273 -42) translate(273 41) translate(0 1) translate(0 .009)">
                        <mask id="zkr9esfr0b" fill="#fff">
                            <use xlink:href="#1t0241yjpa"/>
                        </mask>
                        <path fill="#ff5700" d="M6.895 11.25h.195c.01-.04.02-.058.02-.075 0-.71.002-1.42-.001-2.13 0-.043-.02-.1-.05-.127-.4-.337-.803-.67-1.212-1.01-.714.668-1.49 1.3-2.345 1.847l-.598-.96c.815-.556 1.574-1.142 2.262-1.826-.641-.957-1.114-1.972-1.42-3.08l1.094-.281c.265.88.622 1.706 1.128 2.492.64-.796 1.158-1.623 1.314-2.665h-4.64V2.204h2.551v-.683h1.194v.688h2.549v1.232c-.134 0-.25.005-.367-.001-.096-.005-.145.021-.158.127-.102.83-.417 1.582-.864 2.278-.267.414-.567.806-.832 1.179l.396.428v-.42c0-.594.291-.886.885-.886h3.21c.008-.048.013-.066.013-.084 0-1.926.002-3.852 0-5.779 0-.196-.067-.254-.276-.254C7.387.029 3.83.027.274.033.183.033.092.103 0 .14v11.003c.113.035.226.1.339.1 2.185.007 4.37.005 6.556.005" mask="url(#zkr9esfr0b)"/>
                    </g>
                    <g transform="translate(-273 -42) translate(273 41) translate(0 1) translate(7.72 6.726)">
                        <mask id="6id72hnx6d" fill="#fff">
                            <use xlink:href="#mz8j9e9qoc"/>
                        </mask>
                        <path fill="#ff5700" d="M7.214 9.092c-.045 0-.114-.078-.131-.133-.155-.493-.306-.987-.447-1.484-.035-.125-.09-.16-.218-.16-.603.008-1.207.004-1.819.004-.154.551-.31 1.088-.452 1.628-.032.121-.082.155-.2.154-.475-.006-.95-.003-1.452-.003.034-.12.06-.224.092-.326.652-2.136 1.306-4.272 1.955-6.409.042-.14.1-.193.254-.19.555.011 1.111.009 1.667.001.137-.001.2.033.243.175.674 2.194 1.356 4.385 2.035 6.577.016.051.027.103.045.172-.536 0-1.054.004-1.572-.006M11.248.368c0-.3-.042-.343-.338-.343H.37C.081.025.03.078.03.37V10.91c0 .292.042.335.327.335H10.93c.283 0 .317-.034.317-.32V5.647.368" mask="url(#6id72hnx6d)"/>
                    </g>
                    <path fill="#ff5700" d="M4.884 11.726H3.386c-.005.03-.013.053-.013.076-.001.778-.004 1.555.003 2.333 0 .068.051.149.102.2.338.343.679.683 1.029 1.014.067.063.179.11.27.112.822.008 1.643.005 2.464.004.053 0 .107-.007.166-.012v-1.502H4.884v-2.225z" transform="translate(-273 -42) translate(273 41) translate(0 1)"/>
                    <path fill="#ff5700" d="M12.554 12.88h1.516l-.783-2.793-.733 2.793" transform="translate(-273 -42) translate(273 41) translate(0 1)"/>
                </g>
            </g>
        </g>
    </g>
</svg>
