<svg width="30" height="30" viewBox="0 0 30 30" fill="none" xmlns="http://www.w3.org/2000/svg">
<path d="M25.9927 22.1897C26.1168 22.4028 26.1974 22.6383 26.2299 22.8828C26.2625 23.1272 26.2462 23.3757 26.1822 23.6138C26.1181 23.852 26.0075 24.075 25.8567 24.2702C25.706 24.4653 25.518 24.6287 25.3038 24.7508C25.0195 24.9134 24.698 24.9995 24.3705 25.0008H5.62602C5.37969 25.0008 5.13577 24.9522 4.90826 24.8577C4.68075 24.7633 4.47412 24.6249 4.30019 24.4504C4.12627 24.276 3.98848 24.069 3.89471 23.8412C3.80095 23.6134 3.75307 23.3693 3.7538 23.123C3.75245 22.7951 3.83876 22.4729 4.0038 22.1897L13.376 5.93965C13.4987 5.72595 13.6623 5.53856 13.8575 5.38821C14.0527 5.23787 14.2756 5.12752 14.5136 5.06352C14.7515 4.99952 14.9997 4.98313 15.244 5.01526C15.4883 5.04739 15.7238 5.12742 15.9371 5.25077C16.2221 5.41551 16.458 5.65331 16.6205 5.93965L25.9927 22.1897ZM14.9982 18.8563C14.6418 18.8552 14.293 18.96 13.9961 19.1574C13.6993 19.3547 13.4677 19.6358 13.3308 19.9649C13.1939 20.2941 13.1577 20.6564 13.227 21.0061C13.2963 21.3558 13.4678 21.677 13.7199 21.9291C13.972 22.1812 14.2932 22.3527 14.6429 22.422C14.9926 22.4913 15.355 22.4552 15.6841 22.3182C16.0132 22.1813 16.2943 21.9497 16.4917 21.6529C16.689 21.356 16.7938 21.0072 16.7927 20.6508C16.7927 20.4151 16.7463 20.1818 16.6561 19.9641C16.5659 19.7463 16.4337 19.5485 16.2671 19.3819C16.1005 19.2153 15.9027 19.0831 15.6849 18.9929C15.4672 18.9027 15.2339 18.8563 14.9982 18.8563ZM13.2927 12.3952L13.5816 17.7119C13.5873 17.8317 13.639 17.9448 13.7259 18.0276C13.8128 18.1103 13.9282 18.1564 14.0482 18.1563H15.9482C16.0683 18.1564 16.1837 18.1103 16.2706 18.0276C16.3575 17.9448 16.4092 17.8317 16.4149 17.7119L16.7038 12.4008C16.7075 12.339 16.699 12.2771 16.6786 12.2187C16.6582 12.1603 16.6264 12.1065 16.5851 12.0605C16.5437 12.0145 16.4936 11.9772 16.4377 11.9507C16.3818 11.9242 16.3212 11.9091 16.2594 11.9063H13.7594C13.6356 11.9063 13.5169 11.9555 13.4294 12.043C13.3419 12.1305 13.2927 12.2492 13.2927 12.373V12.4008V12.3952Z" fill="#E20613"/>
</svg>
