<svg width="40" height="40" viewBox="0 0 40 40" fill="none" xmlns="http://www.w3.org/2000/svg">
<path d="M0 20C0 8.95431 8.95431 0 20 0C31.0457 0 40 8.95431 40 20C40 31.0457 31.0457 40 20 40C8.95431 40 0 31.0457 0 20Z" fill="#3C3C3B"/>
<path d="M26.9544 14.2745L24.5399 26.1549C24.3577 26.9934 23.8827 27.2021 23.2076 26.8071L19.5287 23.9786L17.7536 25.7599C17.5571 25.9648 17.3928 26.1363 17.0142 26.1363L17.2785 22.2271L24.097 15.7987C24.3935 15.5229 24.0327 15.3701 23.6363 15.6459L15.2069 21.1836L11.578 19.9986C10.7887 19.7414 10.7744 19.175 11.7423 18.78L25.9365 13.0746C26.5937 12.8174 27.1687 13.2273 26.9544 14.2745Z" fill="white"/>
</svg>
