<svg width="12" height="12" viewBox="0 0 12 12" fill="none" xmlns="http://www.w3.org/2000/svg">
<path d="M6 0C4.81331 0 3.65328 0.351894 2.66658 1.01118C1.67989 1.67047 0.910851 2.60754 0.456726 3.7039C0.0025998 4.80026 -0.11622 6.00666 0.115291 7.17054C0.346802 8.33443 0.918247 9.40353 1.75736 10.2426C2.59648 11.0818 3.66558 11.6532 4.82946 11.8847C5.99335 12.1162 7.19975 11.9974 8.2961 11.5433C9.39246 11.0892 10.3295 10.3201 10.9888 9.33342C11.6481 8.34673 12 7.18669 12 6C12 4.4087 11.3679 2.88258 10.2426 1.75736C9.11742 0.632141 7.5913 0 6 0ZM6.83334 9.04333C6.83334 9.1229 6.80173 9.19921 6.74547 9.25547C6.68921 9.31173 6.6129 9.34333 6.53334 9.34333H5.46667C5.3871 9.34333 5.3108 9.31173 5.25454 9.25547C5.19828 9.19921 5.16667 9.1229 5.16667 9.04333V5.78667C5.16667 5.7071 5.19828 5.6308 5.25454 5.57454C5.3108 5.51827 5.3871 5.48667 5.46667 5.48667H6.53334C6.6129 5.48667 6.68921 5.51827 6.74547 5.57454C6.80173 5.6308 6.83334 5.7071 6.83334 5.78667V9.04333ZM6 4.95333C5.77315 4.95005 5.55234 4.87973 5.36536 4.75124C5.17838 4.62274 5.03358 4.44181 4.94919 4.23122C4.8648 4.02062 4.84459 3.78977 4.8911 3.56771C4.9376 3.34565 5.04876 3.14231 5.21056 2.98328C5.37237 2.82425 5.5776 2.71663 5.80043 2.67397C6.02325 2.63131 6.25372 2.65551 6.46283 2.74353C6.67193 2.83155 6.85033 2.97945 6.97557 3.16862C7.10082 3.3578 7.1673 3.57979 7.16667 3.80667C7.16536 3.95856 7.13415 4.10872 7.07481 4.24855C7.01547 4.38838 6.92917 4.51516 6.82083 4.62164C6.71249 4.72812 6.58425 4.81221 6.44341 4.86913C6.30257 4.92604 6.1519 4.95465 6 4.95333Z" fill="#34A853"/>
</svg>
