<svg width="16" height="14" viewBox="0 0 16 14" fill="none" xmlns="http://www.w3.org/2000/svg">
<path d="M16 1.3C16 0.58203 15.418 0 14.7 0H1.3C0.582029 0 0 0.58203 0 1.3C0 2.01797 0.582029 2.6 1.3 2.6H14.7C15.418 2.6 16 2.01797 16 1.3Z" fill="#3C3C3B"/>
<path d="M16 7C16 6.28203 15.418 5.7 14.7 5.7H7.3C6.58203 5.7 6 6.28203 6 7C6 7.71797 6.58203 8.3 7.3 8.3H14.7C15.418 8.3 16 7.71797 16 7Z" fill="#3C3C3B"/>
<path d="M16 12.7C16 11.982 15.418 11.4 14.7 11.4H1.3C0.582029 11.4 0 11.982 0 12.7C0 13.418 0.582029 14 1.3 14H14.7C15.418 14 16 13.418 16 12.7Z" fill="#3C3C3B"/>
</svg>
