<svg width="16" height="16" viewBox="0 0 16 16" fill="none" xmlns="http://www.w3.org/2000/svg">
<path d="M6.10939 15.3492V10.8744C6.10939 10.8002 6.13885 10.7291 6.1913 10.6766C6.24375 10.6242 6.31489 10.5947 6.38907 10.5947H9.61096C9.68513 10.5947 9.75627 10.6242 9.80872 10.6766C9.86117 10.7291 9.89063 10.8002 9.89063 10.8744V15.3492C9.89063 15.4234 9.9201 15.4945 9.97255 15.547C10.025 15.5994 10.0961 15.6289 10.1703 15.6289H13.4481C13.5223 15.6289 13.5935 15.5994 13.6459 15.547C13.6984 15.4945 13.7278 15.4234 13.7278 15.3492V8.35728C13.7278 8.2831 13.7573 8.21197 13.8097 8.15952C13.8622 8.10707 13.9333 8.0776 14.0075 8.0776H15.4674C15.524 8.07802 15.5795 8.06124 15.6263 8.02948C15.6732 7.99772 15.7094 7.95248 15.73 7.89973C15.7506 7.84699 15.7547 7.78923 15.7418 7.73409C15.7289 7.67896 15.6995 7.62905 15.6576 7.59096L8.19019 0.699695C8.13735 0.654033 8.06985 0.628906 8.00001 0.628906C7.93018 0.628906 7.86267 0.654033 7.80983 0.699695L0.342428 7.59096C0.300521 7.62905 0.271163 7.67896 0.258237 7.73409C0.245312 7.78923 0.249428 7.84699 0.27004 7.89973C0.290653 7.95248 0.326792 7.99772 0.373676 8.02948C0.42056 8.06124 0.475981 8.07802 0.532609 8.0776H1.99253C2.0667 8.0776 2.13784 8.10707 2.19029 8.15952C2.24274 8.21197 2.27221 8.2831 2.27221 8.35728V15.3492C2.27221 15.4234 2.30167 15.4945 2.35412 15.547C2.40657 15.5994 2.47771 15.6289 2.55188 15.6289H5.82971C5.90389 15.6289 5.97502 15.5994 6.02747 15.547C6.07992 15.4945 6.10939 15.4234 6.10939 15.3492Z" fill="#AAAAAA"/>
</svg>
