<svg width="22" height="22" viewBox="0 0 22 22" fill="none" xmlns="http://www.w3.org/2000/svg">
<path fill-rule="evenodd" clip-rule="evenodd" d="M7.16771 1.9343C5.66398 1.76324 4.10739 1.76324 2.60367 1.9343C2.23828 1.97587 1.95013 2.27035 1.90903 2.62801C1.72946 4.19074 1.72946 5.76944 1.90903 7.33217C1.95013 7.68983 2.23828 7.98431 2.60367 8.02588C4.1074 8.19694 5.66398 8.19694 7.16771 8.02588C7.5331 7.98431 7.82125 7.68983 7.86235 7.33217C8.04192 5.76944 8.04192 4.19074 7.86235 2.62801C7.82125 2.27035 7.5331 1.97587 7.16771 1.9343ZM2.40659 0.139471C4.04129 -0.0464904 5.73009 -0.0464904 7.36479 0.139471C8.53686 0.272804 9.48607 1.21191 9.62469 2.41821C9.82027 4.12033 9.82027 5.83985 9.62469 7.54197C9.48607 8.74827 8.53686 9.68738 7.36479 9.82071C5.73008 10.0067 4.04129 10.0067 2.40659 9.82071C1.23452 9.68738 0.285307 8.74827 0.146692 7.54197C-0.0488972 5.83985 -0.0488972 4.12033 0.146692 2.41821C0.285307 1.21191 1.23452 0.272804 2.40659 0.139471Z" fill="#3C3C3B"/>
<path fill-rule="evenodd" clip-rule="evenodd" d="M7.16771 13.9743C5.66398 13.8033 4.10739 13.8033 2.60367 13.9743C2.23828 14.0159 1.95013 14.3104 1.90903 14.668C1.72946 16.2308 1.72946 17.8095 1.90903 19.3722C1.95013 19.7299 2.23828 20.0243 2.60367 20.0659C4.1074 20.237 5.66398 20.237 7.16771 20.0659C7.5331 20.0243 7.82125 19.7299 7.86235 19.3722C8.04192 17.8095 8.04192 16.2308 7.86235 14.668C7.82125 14.3104 7.5331 14.0159 7.16771 13.9743ZM2.40659 12.1795C4.04129 11.9935 5.73009 11.9935 7.36479 12.1795C8.53686 12.3128 9.48607 13.2519 9.62469 14.4582C9.82027 16.1604 9.82027 17.8799 9.62469 19.582C9.48607 20.7883 8.53686 21.7274 7.36479 21.8607C5.73008 22.0467 4.04129 22.0467 2.40659 21.8607C1.23452 21.7274 0.285307 20.7883 0.146692 19.582C-0.0488972 17.8799 -0.0488972 16.1604 0.146692 14.4582C0.285307 13.2519 1.23452 12.3128 2.40659 12.1795Z" fill="#3C3C3B"/>
<path fill-rule="evenodd" clip-rule="evenodd" d="M18.9967 1.9343C17.493 1.76324 15.9364 1.76324 14.4327 1.9343C14.0673 1.97587 13.7791 2.27035 13.738 2.62801C13.5585 4.19074 13.5585 5.76944 13.738 7.33217C13.7791 7.68983 14.0673 7.98431 14.4327 8.02588C15.9364 8.19694 17.493 8.19694 18.9967 8.02588C19.3621 7.98431 19.6503 7.68983 19.6914 7.33217C19.8709 5.76944 19.8709 4.19074 19.6914 2.62801C19.6503 2.27035 19.3621 1.97587 18.9967 1.9343ZM14.2356 0.139471C15.8703 -0.0464904 17.5591 -0.0464904 19.1938 0.139471C20.3659 0.272804 21.3151 1.21191 21.4537 2.41821C21.6493 4.12033 21.6493 5.83985 21.4537 7.54197C21.3151 8.74827 20.3659 9.68738 19.1938 9.82071C17.5591 10.0067 15.8703 10.0067 14.2356 9.82071C13.0635 9.68738 12.1143 8.74827 11.9757 7.54197C11.7801 5.83985 11.7801 4.12033 11.9757 2.41821C12.1143 1.21191 13.0635 0.272804 14.2356 0.139471Z" fill="#3C3C3B"/>
<path fill-rule="evenodd" clip-rule="evenodd" d="M18.9967 13.9743C17.493 13.8033 15.9364 13.8033 14.4327 13.9743C14.0673 14.0159 13.7791 14.3104 13.738 14.668C13.5585 16.2308 13.5585 17.8095 13.738 19.3722C13.7791 19.7299 14.0673 20.0243 14.4327 20.0659C15.9364 20.237 17.493 20.237 18.9967 20.0659C19.3621 20.0243 19.6503 19.7299 19.6914 19.3722C19.8709 17.8095 19.8709 16.2308 19.6914 14.668C19.6503 14.3104 19.3621 14.0159 18.9967 13.9743ZM14.2356 12.1795C15.8703 11.9935 17.5591 11.9935 19.1938 12.1795C20.3659 12.3128 21.3151 13.2519 21.4537 14.4582C21.6493 16.1604 21.6493 17.8799 21.4537 19.582C21.3151 20.7883 20.3659 21.7274 19.1938 21.8607C17.5591 22.0467 15.8703 22.0467 14.2356 21.8607C13.0635 21.7274 12.1143 20.7883 11.9757 19.582C11.7801 17.8799 11.7801 16.1604 11.9757 14.4582C12.1143 13.2519 13.0635 12.3128 14.2356 12.1795Z" fill="#3C3C3B"/>
</svg>
