<svg width="12" height="18" viewBox="0 0 12 18" fill="none" xmlns="http://www.w3.org/2000/svg">
<path d="M9.935 0H2.06001C1.83831 -9.76038e-07 1.61879 0.0437543 1.41403 0.128746C1.20927 0.213738 1.02329 0.338296 0.866761 0.495292C0.710228 0.652289 0.586217 0.838636 0.501833 1.04365C0.417448 1.24866 0.37435 1.4683 0.375007 1.69V16.315C0.375007 16.7619 0.552534 17.1905 0.868532 17.5065C1.18453 17.8225 1.61312 18 2.06001 18H9.935C10.1567 18.0007 10.3763 17.9575 10.5814 17.8732C10.7864 17.7888 10.9727 17.6648 11.1297 17.5082C11.2867 17.3517 11.4113 17.1657 11.4963 16.961C11.5812 16.7562 11.625 16.5367 11.625 16.315V1.69C11.625 1.24179 11.4469 0.811931 11.13 0.494995C10.8131 0.178058 10.3832 0 9.935 0ZM6 16.87C5.7775 16.87 5.55999 16.804 5.37499 16.6804C5.18998 16.5568 5.04579 16.3811 4.96064 16.1755C4.87549 15.9699 4.85321 15.7437 4.89662 15.5255C4.94003 15.3073 5.04717 15.1068 5.20451 14.9495C5.36184 14.7922 5.5623 14.685 5.78053 14.6416C5.99875 14.5982 6.22495 14.6205 6.43052 14.7056C6.63609 14.7908 6.81179 14.935 6.93541 15.12C7.05902 15.305 7.125 15.5225 7.125 15.745C7.125 16.0434 7.00647 16.3295 6.7955 16.5405C6.58452 16.7515 6.29837 16.87 6 16.87ZM9.935 13.075C9.9337 13.186 9.88903 13.2921 9.81055 13.3705C9.73206 13.449 9.62599 13.4937 9.515 13.495H2.48501C2.37315 13.495 2.2658 13.4509 2.18624 13.3723C2.10668 13.2937 2.06132 13.1868 2.06001 13.075V2.11C2.06 2.05442 2.07103 1.9994 2.09245 1.94811C2.11387 1.89683 2.14525 1.8503 2.18478 1.81123C2.22431 1.77217 2.27121 1.74134 2.32274 1.72053C2.37428 1.69972 2.42943 1.68934 2.48501 1.69H9.515C9.62639 1.69 9.73322 1.73425 9.81198 1.81302C9.89075 1.89178 9.935 1.99861 9.935 2.11V13.075Z" fill="url(#paint0_linear)"/>
<defs>
<linearGradient id="paint0_linear" x1="4.00019e-05" y1="7.50017" x2="11.2219" y2="7.50017" gradientUnits="userSpaceOnUse">
<stop stop-color="#66BEEF"/>
<stop offset="1" stop-color="#FFCD1C"/>
</linearGradient>
</defs>
</svg>
