<svg width="30" height="30" viewBox="0 0 30 30" fill="none" xmlns="http://www.w3.org/2000/svg">
<path d="M21.8619 5H8.1323C7.87143 5 7.62125 5.09892 7.43679 5.275C7.25233 5.45107 7.1487 5.68988 7.1487 5.93889V6.56667C7.1487 6.81421 7.25172 7.0516 7.43509 7.22663C7.61846 7.40166 7.86716 7.5 8.12648 7.5C8.12648 11.0556 10.2101 14.0556 13.0736 15C10.2159 15.95 8.12648 18.9444 8.12648 22.5C7.86561 22.5 7.61543 22.5989 7.43097 22.775C7.24651 22.9511 7.14288 23.1899 7.14288 23.4389V24.0667C7.14288 24.3142 7.2459 24.5516 7.42927 24.7266C7.61264 24.9017 7.86134 25 8.12066 25H21.8736C22.1334 25 22.3827 24.9018 22.567 24.727C22.7513 24.5521 22.8556 24.3147 22.8572 24.0667V23.4389C22.8572 23.1899 22.7535 22.9511 22.5691 22.775C22.3846 22.5989 22.1344 22.5 21.8736 22.5C21.8736 18.9444 19.7842 15.95 16.9265 15C19.7842 14.0556 21.8736 11.0556 21.8736 7.5C22.1334 7.5 22.3827 7.40185 22.567 7.22697C22.7513 7.05209 22.8556 6.81472 22.8572 6.56667V5.93889C22.8572 5.68988 22.7535 5.45107 22.5691 5.275C22.3846 5.09892 22.1344 5 21.8736 5H21.8619ZM18.7889 20H11.182C11.8804 18.1722 13.318 16.8778 14.9884 16.8778C16.6588 16.8778 18.0905 18.1722 18.7889 20ZM18.7889 10H11.182C10.88 9.19809 10.7264 8.35215 10.7281 7.5H19.2429C19.2445 8.35215 19.0909 9.19809 18.7889 10Z" fill="#F29100"/>
</svg>
