<svg width="36" height="36" viewBox="0 0 36 36" fill="none" xmlns="http://www.w3.org/2000/svg">
<path d="M0 12C0 5.37258 5.37258 0 12 0H24C30.6274 0 36 5.37258 36 12V24C36 30.6274 30.6274 36 24 36H12C5.37258 36 0 30.6274 0 24V12Z" fill="#2A3238"/>
<path fill-rule="evenodd" clip-rule="evenodd" d="M13.0645 13.2063C13.0645 10.5521 15.2742 8.40039 18 8.40039C20.7258 8.40039 22.9355 10.5521 22.9355 13.2063C22.9355 15.8605 20.7258 18.0122 18 18.0122C15.2742 18.0122 13.0645 15.8605 13.0645 13.2063ZM18 10.0966C16.2363 10.0966 14.8065 11.4889 14.8065 13.2063C14.8065 14.9238 16.2363 16.316 18 16.316C19.7637 16.316 21.1935 14.9238 21.1935 13.2063C21.1935 11.4889 19.7637 10.0966 18 10.0966Z" fill="#FFCD1E"/>
<path fill-rule="evenodd" clip-rule="evenodd" d="M13.3548 21.4046C11.9118 21.4046 10.7419 22.5438 10.7419 23.949V25.2927C10.7419 25.3131 10.7572 25.3306 10.7779 25.3339C15.561 26.0943 20.439 26.0943 25.2221 25.3339C25.2428 25.3306 25.2581 25.3131 25.2581 25.2927V23.949C25.2581 22.5438 24.0882 21.4046 22.6452 21.4046H22.2493C22.2187 21.4046 22.1883 21.4094 22.1592 21.4186L21.1541 21.7382C19.1046 22.3898 16.8954 22.3898 14.8459 21.7382L13.8408 21.4186C13.8117 21.4094 13.7813 21.4046 13.7507 21.4046H13.3548ZM9 23.949C9 21.607 10.9497 19.7084 13.3548 19.7084H13.7507C13.9649 19.7084 14.1778 19.7414 14.3815 19.8062L15.3866 20.1258C17.0848 20.6657 18.9152 20.6657 20.6134 20.1258L21.6185 19.8062C21.8222 19.7414 22.0351 19.7084 22.2493 19.7084H22.6452C25.0503 19.7084 27 21.607 27 23.949V25.2927C27 26.1444 26.3661 26.8707 25.5028 27.0079C20.5338 27.7979 15.4662 27.7979 10.4972 27.0079C9.63393 26.8707 9 26.1444 9 25.2927V23.949Z" fill="#FFCD1E"/>
</svg>
