<svg width="16" height="16" viewBox="0 0 16 16" fill="none" xmlns="http://www.w3.org/2000/svg">
<path d="M15.2905 14.2173L12.5204 11.4472C13.5936 10.0975 14.1094 8.38808 13.9617 6.67001C13.8141 4.95193 13.0143 3.35558 11.7266 2.20871C10.4389 1.06184 8.76091 0.451497 7.03727 0.503015C5.31364 0.554533 3.67513 1.264 2.45819 2.48573C1.24125 3.70746 0.53823 5.34875 0.493485 7.07257C0.448741 8.79639 1.06567 10.4719 2.21759 11.7552C3.36951 13.0384 4.969 13.8319 6.68764 13.9727C8.40628 14.1136 10.1136 13.5911 11.4591 12.5126L14.225 15.2785C14.295 15.3491 14.3783 15.4051 14.4702 15.4431C14.562 15.4811 14.6605 15.5004 14.7598 15.5C14.8587 15.5008 14.9566 15.4817 15.0478 15.4436C15.139 15.4055 15.2216 15.3494 15.2905 15.2785C15.4308 15.1376 15.5096 14.9468 15.5096 14.7479C15.5096 14.549 15.4308 14.3582 15.2905 14.2173ZM1.97483 7.22732C1.9749 6.36237 2.18809 5.51074 2.59556 4.74777C3.00302 3.9848 3.59221 3.33399 4.31101 2.85287C5.02982 2.37175 5.85609 2.07515 6.71678 1.98931C7.57747 1.90347 8.44605 2.03103 9.24572 2.3607C10.0454 2.69037 10.7515 3.21199 11.3016 3.87946C11.8518 4.54692 12.229 5.33965 12.3999 6.18755C12.5708 7.03546 12.5301 7.91241 12.2815 8.74087C12.0329 9.56933 11.584 10.3238 10.9745 10.9375C10.2374 11.6709 9.29948 12.1693 8.27923 12.37C7.25898 12.5706 6.20217 12.4643 5.24227 12.0646C4.28238 11.6649 3.46247 10.9897 2.88612 10.1243C2.30977 9.25887 2.00283 8.24204 2.00408 7.20226L1.97483 7.22732Z" fill="#3C3C3B"/>
</svg>
