<svg width="23" height="23" viewBox="0 0 23 23" fill="none" xmlns="http://www.w3.org/2000/svg">
<path d="M11.5 4C10.0166 4 8.56659 4.43987 7.33323 5.26398C6.09986 6.08809 5.13856 7.25943 4.57091 8.62987C4.00325 10.0003 3.85472 11.5083 4.14411 12.9632C4.4335 14.418 5.14781 15.7544 6.1967 16.8033C7.2456 17.8522 8.58197 18.5665 10.0368 18.8559C11.4917 19.1453 12.9997 18.9967 14.3701 18.4291C15.7406 17.8614 16.9119 16.9001 17.736 15.6668C18.5601 14.4334 19 12.9834 19 11.5C19 10.5151 18.806 9.53981 18.4291 8.62987C18.0522 7.71993 17.4997 6.89314 16.8033 6.1967C16.1069 5.50026 15.2801 4.94781 14.3701 4.5709C13.4602 4.19399 12.4849 4 11.5 4ZM14.9792 12.3667H12.4333V14.9083C12.4416 15.0264 12.4254 15.1448 12.3859 15.2563C12.3464 15.3678 12.2843 15.47 12.2036 15.5566C12.1229 15.6431 12.0253 15.7121 11.9168 15.7592C11.8083 15.8064 11.6912 15.8307 11.5729 15.8307C11.4546 15.8307 11.3376 15.8064 11.2291 15.7592C11.1206 15.7121 11.0229 15.6431 10.9422 15.5566C10.8615 15.47 10.7995 15.3678 10.76 15.2563C10.7204 15.1448 10.7043 15.0264 10.7125 14.9083V12.3667H8.17084C8.05281 12.3749 7.93435 12.3587 7.82284 12.3192C7.71132 12.2797 7.60912 12.2177 7.52261 12.137C7.43609 12.0563 7.3671 11.9586 7.31993 11.8501C7.27277 11.7416 7.24842 11.6246 7.24842 11.5062C7.24842 11.3879 7.27277 11.2709 7.31993 11.1624C7.3671 11.0539 7.43609 10.9562 7.52261 10.8755C7.60912 10.7948 7.71132 10.7328 7.82284 10.6933C7.93435 10.6538 8.05281 10.6376 8.17084 10.6458H10.7333V8.09583C10.7485 7.87798 10.8457 7.674 11.0054 7.52504C11.1651 7.37608 11.3754 7.29324 11.5938 7.29324C11.8121 7.29324 12.0224 7.37608 12.1821 7.52504C12.3418 7.674 12.439 7.87798 12.4542 8.09583V10.6417H15C15.2179 10.6568 15.4218 10.7541 15.5708 10.9138C15.7198 11.0735 15.8026 11.2837 15.8026 11.5021C15.8026 11.7205 15.7198 11.9307 15.5708 12.0904C15.4218 12.2501 15.2179 12.3473 15 12.3625L14.9792 12.3667Z" fill="#FFCD1E"/>
</svg>
