<svg width="15" height="15" viewBox="0 0 15 15" fill="none" xmlns="http://www.w3.org/2000/svg">
<path d="M14.3202 2.99676V4.02885C14.2749 4.02439 14.2292 4.02439 14.1838 4.02885H0.680176V2.99676C0.680176 2.56265 0.852624 2.14632 1.15959 1.83936C1.46655 1.5324 1.88287 1.35995 2.31698 1.35995H3.80829V0.941657C3.82546 0.686254 3.93903 0.446915 4.12601 0.272087C4.31299 0.0972577 4.5594 0 4.81538 0C5.07136 0 5.31778 0.0972577 5.50476 0.272087C5.69174 0.446915 5.8053 0.686254 5.82247 0.941657V1.35995H9.17792V0.941657C9.1951 0.686254 9.30866 0.446915 9.49564 0.272087C9.68262 0.0972577 9.92904 0 10.185 0C10.441 0 10.6874 0.0972577 10.8744 0.272087C11.0614 0.446915 11.1749 0.686254 11.1921 0.941657V1.35995H12.6834C13.1175 1.35995 13.5339 1.5324 13.8408 1.83936C14.1478 2.14632 14.3202 2.56265 14.3202 2.99676ZM14.1838 5.37922C14.2292 5.38369 14.2749 5.38369 14.3202 5.37922V13.3632C14.3202 13.7973 14.1478 14.2136 13.8408 14.5206C13.5339 14.8276 13.1175 15 12.6834 15H2.31698C1.88287 15 1.46655 14.8276 1.15959 14.5206C0.852624 14.2136 0.680176 13.7973 0.680176 13.3632V5.37922H14.1838ZM4.27205 11.4718C4.27205 11.282 4.21579 11.0966 4.11037 10.9388C4.00496 10.781 3.85513 10.6581 3.67983 10.5855C3.50453 10.5128 3.31164 10.4938 3.12555 10.5309C2.93945 10.5679 2.76851 10.6592 2.63434 10.7934C2.50017 10.9276 2.40881 11.0985 2.37179 11.2846C2.33477 11.4707 2.35377 11.6636 2.42638 11.8389C2.49899 12.0142 2.62195 12.164 2.77972 12.2694C2.93748 12.3749 3.12296 12.4311 3.3127 12.4311C3.56714 12.4311 3.81115 12.33 3.99107 12.1501C4.17098 11.9702 4.27205 11.7262 4.27205 11.4718ZM4.27205 8.06176C4.27205 7.87202 4.21579 7.68654 4.11037 7.52878C4.00496 7.37101 3.85513 7.24805 3.67983 7.17544C3.50453 7.10283 3.31164 7.08383 3.12555 7.12085C2.93945 7.15786 2.76851 7.24923 2.63434 7.3834C2.50017 7.51757 2.40881 7.68851 2.37179 7.8746C2.33477 8.0607 2.35377 8.25359 2.42638 8.42889C2.49899 8.60419 2.62195 8.75402 2.77972 8.85943C2.93748 8.96485 3.12296 9.02111 3.3127 9.02111C3.56714 9.02111 3.81115 8.92004 3.99107 8.74013C4.17098 8.56021 4.27205 8.3162 4.27205 8.06176ZM8.45955 11.4718C8.45955 11.282 8.40328 11.0966 8.29787 10.9388C8.19245 10.781 8.04262 10.6581 7.86733 10.5855C7.69203 10.5128 7.49913 10.4938 7.31304 10.5309C7.12694 10.5679 6.956 10.6592 6.82184 10.7934C6.68767 10.9276 6.5963 11.0985 6.55928 11.2846C6.52227 11.4707 6.54126 11.6636 6.61387 11.8389C6.68649 12.0142 6.80945 12.164 6.96721 12.2694C7.12498 12.3749 7.31046 12.4311 7.5002 12.4311C7.75463 12.4311 7.99865 12.33 8.17856 12.1501C8.35847 11.9702 8.45955 11.7262 8.45955 11.4718ZM8.45955 8.06176C8.45955 7.87202 8.40328 7.68654 8.29787 7.52878C8.19245 7.37101 8.04262 7.24805 7.86733 7.17544C7.69203 7.10283 7.49913 7.08383 7.31304 7.12085C7.12694 7.15786 6.956 7.24923 6.82184 7.3834C6.68767 7.51757 6.5963 7.68851 6.55928 7.8746C6.52227 8.0607 6.54126 8.25359 6.61387 8.42889C6.68649 8.60419 6.80945 8.75402 6.96721 8.85943C7.12498 8.96485 7.31046 9.02111 7.5002 9.02111C7.75463 9.02111 7.99865 8.92004 8.17856 8.74013C8.35847 8.56021 8.45955 8.3162 8.45955 8.06176ZM12.647 11.4718C12.647 11.282 12.5908 11.0966 12.4854 10.9388C12.3799 10.781 12.2301 10.6581 12.0548 10.5855C11.8795 10.5128 11.6866 10.4938 11.5005 10.5309C11.3144 10.5679 11.1435 10.6592 11.0093 10.7934C10.8752 10.9276 10.7838 11.0985 10.7468 11.2846C10.7098 11.4707 10.7288 11.6636 10.8014 11.8389C10.874 12.0142 10.9969 12.164 11.1547 12.2694C11.3125 12.3749 11.498 12.4311 11.6877 12.4311C11.9418 12.4299 12.1851 12.3285 12.3647 12.1488C12.5444 11.9692 12.6458 11.7258 12.647 11.4718ZM12.647 8.06176C12.647 7.87202 12.5908 7.68654 12.4854 7.52878C12.3799 7.37101 12.2301 7.24805 12.0548 7.17544C11.8795 7.10283 11.6866 7.08383 11.5005 7.12085C11.3144 7.15786 11.1435 7.24923 11.0093 7.3834C10.8752 7.51757 10.7838 7.68851 10.7468 7.8746C10.7098 8.0607 10.7288 8.25359 10.8014 8.42889C10.874 8.60419 10.9969 8.75402 11.1547 8.85943C11.3125 8.96485 11.498 9.02111 11.6877 9.02111C11.9418 9.01992 12.1851 8.91846 12.3647 8.7388C12.5444 8.55915 12.6458 8.31583 12.647 8.06176Z" fill="#FFCD1C"/>
</svg>
