<svg width="16" height="18" viewBox="0 0 16 18" fill="none" xmlns="http://www.w3.org/2000/svg">
<path d="M11.4774 1.27273C11.4774 1.06779 11.396 0.87124 11.251 0.726326C11.1061 0.581412 10.9096 0.5 10.7046 0.5H2.20463C1.79475 0.5 1.40166 0.662825 1.11183 0.952654C0.822004 1.24248 0.65918 1.63557 0.65918 2.04545V12.0909C0.65918 12.2958 0.740592 12.4924 0.885506 12.6373C1.03042 12.7822 1.22697 12.8636 1.43191 12.8636C1.63685 12.8636 1.83339 12.7822 1.97831 12.6373C2.12322 12.4924 2.20463 12.2958 2.20463 12.0909V2.04545H10.7046C10.9096 2.04545 11.1061 1.96404 11.251 1.81913C11.396 1.67421 11.4774 1.47767 11.4774 1.27273ZM13.7955 3.59091H5.29554C4.88566 3.59091 4.49257 3.75373 4.20274 4.04356C3.91291 4.33339 3.75009 4.72648 3.75009 5.13636V15.9545C3.75009 16.3644 3.91291 16.7575 4.20274 17.0473C4.49257 17.3372 4.88566 17.5 5.29554 17.5H13.7955C14.2054 17.5 14.5985 17.3372 14.8883 17.0473C15.1782 16.7575 15.341 16.3644 15.341 15.9545V5.13636C15.341 4.72648 15.1782 4.33339 14.8883 4.04356C14.5985 3.75373 14.2054 3.59091 13.7955 3.59091ZM13.7955 15.9545H5.29554V5.13636H13.7955V15.9545Z" fill="#FFCD1C"/>
</svg>
