<svg width="38" height="38" viewBox="0 0 38 38" fill="none" xmlns="http://www.w3.org/2000/svg">
<path fill-rule="evenodd" clip-rule="evenodd" d="M31.1325 37.8604H7.02495L0.172363 31.008V6.90018L7.02495 0.0478516H31.1325L37.9849 6.90018V31.008L31.1325 37.8604Z" fill="#FFCD1C"/>
<path fill-rule="evenodd" clip-rule="evenodd" d="M13.2503 15.7345H16.5807H19.0786H21.5765V19.8976H24.9069V17.8159V15.7345V12.4041V10.3224V6.86816H21.5765V12.4041H16.5807V6.86816H13.2503V12.4041H8.25439V15.7345H11.5851H13.2503Z" fill="#3C3C3B"/>
<path fill-rule="evenodd" clip-rule="evenodd" d="M8.25439 24.0609H12.4175V20.7305H8.25439V24.0609Z" fill="#3C3C3B"/>
<path fill-rule="evenodd" clip-rule="evenodd" d="M16.5804 28.7153H21.5763V24.0609H16.5804V28.7153ZM24.9069 20.7305H21.5763H19.4948H16.5807V16.5674H13.25V18.1269V20.7305V24.0612V25.6204V28.7153V28.7558L16.5401 32.046H21.6168L24.9069 28.7558V28.7153V24.0612H29.9026V20.7305H26.9884H24.9069Z" fill="#3C3C3B"/>
<path fill-rule="evenodd" clip-rule="evenodd" d="M25.7397 15.7357H29.9029V12.4053H25.7397V15.7357Z" fill="#3C3C3B"/>
</svg>
