<svg width="45" height="45" viewBox="0 0 45 45" fill="none" xmlns="http://www.w3.org/2000/svg">
<path d="M0 22.9287C0 10.7784 9.84974 0.928711 22 0.928711H23C35.1503 0.928711 45 10.7784 45 22.9287C45 35.079 35.1503 44.9287 23 44.9287H22C9.84973 44.9287 0 35.079 0 22.9287Z" fill="#EEEEEE"/>
<path d="M21.1814 12.3288C21.5642 12.0688 22.026 11.9287 22.5001 11.9287C22.9741 11.9287 23.4359 12.0688 23.8187 12.3288L33.3011 18.7654C34.5495 19.6116 33.9068 21.4477 32.3632 21.4513H12.6356C11.0921 21.4477 10.4506 19.6116 11.6977 18.7654L21.1814 12.3288ZM23.7778 16.9935C23.7778 16.6783 23.6432 16.376 23.4036 16.1531C23.164 15.9302 22.8389 15.805 22.5001 15.805C22.1612 15.805 21.8362 15.9302 21.5965 16.1531C21.3569 16.376 21.2223 16.6783 21.2223 16.9935C21.2223 17.3087 21.3569 17.6109 21.5965 17.8338C21.8362 18.0567 22.1612 18.1819 22.5001 18.1819C22.8389 18.1819 23.164 18.0567 23.4036 17.8338C23.6432 17.6109 23.7778 17.3087 23.7778 16.9935Z" fill="#3C3C3B"/>
<path d="M21.5418 28.5807H18.9863V22.6385H21.5418V28.5807Z" fill="#3C3C3B"/>
<path d="M26.014 28.5807H23.4585V22.6385H26.014V28.5807Z" fill="#3C3C3B"/>
<path d="M30.8056 28.5807H27.9306V22.6385H30.8056V28.5807Z" fill="#3C3C3B"/>
<path d="M31.125 29.7692H13.875C13.1125 29.7692 12.3812 30.0509 11.8421 30.5524C11.3029 31.0538 11 31.734 11 32.4432V33.0374C11 33.5306 11.4293 33.9287 11.9583 33.9287H33.0417C33.2958 33.9287 33.5396 33.8348 33.7193 33.6676C33.899 33.5005 34 33.2738 34 33.0374V32.4432C34 31.734 33.6971 31.0538 33.1579 30.5524C32.6188 30.0509 31.8875 29.7692 31.125 29.7692Z" fill="#3C3C3B"/>
<path d="M17.0694 28.5807H14.1944V22.6385H17.0694V28.5807Z" fill="#3C3C3B"/>
</svg>
