<svg width="20" height="16" viewBox="0 0 20 16" fill="none" xmlns="http://www.w3.org/2000/svg">
<path fill-rule="evenodd" clip-rule="evenodd" d="M16.9617 0.179293L10 0L3.03833 0.179293C1.74831 0.212517 0.656055 1.27248 0.422806 2.71748C-0.140935 6.20991 -0.140935 9.79009 0.422806 13.2825C0.656055 14.7275 1.74832 15.7875 3.03833 15.8207L10 16L16.9617 15.8207C18.2517 15.7875 19.3439 14.7275 19.5772 13.2825C20.1409 9.79009 20.1409 6.20991 19.5772 2.71748C19.3439 1.27248 18.2517 0.212517 16.9617 0.179293ZM3.0712 1.834L10 1.65555L16.9288 1.834C17.5299 1.84948 18.0388 2.34337 18.1475 3.01667C18.296 3.93691 18.4031 4.86361 18.4687 5.79315H1.53134C1.5969 4.86361 1.70395 3.93691 1.85249 3.01667C1.96118 2.34337 2.47012 1.84948 3.0712 1.834ZM1.45363 7.99999C1.45363 9.668 1.58659 11.336 1.85249 12.9833C1.96118 13.6566 2.47012 14.1505 3.0712 14.166L10 14.3444L16.9288 14.166C17.5299 14.1505 18.0388 13.6566 18.1475 12.9833C18.4134 11.336 18.5464 9.668 18.5464 7.99999H1.45363Z" fill="#3C3C3B"/>
</svg>
