<svg width="142" height="36" viewBox="0 0 142 36" fill="none" xmlns="http://www.w3.org/2000/svg">
<path fill-rule="evenodd" clip-rule="evenodd" d="M13.6552 13.6552H19.862V29.0445H24.8275V0H19.862V8.68972H13.6552V0H8.68972V8.68972H0V13.6552H8.68972H13.6552Z" fill="#FFCD1E"/>
<path fill-rule="evenodd" clip-rule="evenodd" d="M13.655 31.0342H19.8617V24.8274H13.655V31.0342ZM19.8617 19.8619H13.655V11.4727H8.68945V31.0342V31.6548L13.0343 35.9997H20.4824L24.8273 31.6548V31.0342V24.8274H33.517V19.8619H24.8273H19.8617Z" fill="#FFCD1E"/>
<path fill-rule="evenodd" clip-rule="evenodd" d="M0 13.6904H34V8.69043H0V13.6904Z" fill="#FFCD1E"/>
<path fill-rule="evenodd" clip-rule="evenodd" d="M0 24.8604H34V19.8604H0V24.8604Z" fill="#FFCD1E"/>
<path fill-rule="evenodd" clip-rule="evenodd" d="M66.3759 18.4688L61.4793 8.62891H59.6279V27.8225H62.7395L62.7399 17.1615L67.6671 27.8225H69.4918V8.62891H66.3759V18.4688Z" fill="#131614"/>
<path fill-rule="evenodd" clip-rule="evenodd" d="M51.4414 8.62891V24.8148H47.8014V8.62891H44.6895V25.0778L47.4342 27.8229H51.8086L54.5534 25.0778V8.62891H51.4414Z" fill="#131614"/>
<path fill-rule="evenodd" clip-rule="evenodd" d="M82.3461 11.6366V8.62891H79.7526H76.6407H74.0469V11.6366H76.6407V24.8148H74.0469V27.8225H82.3461V24.8148H79.7526V11.6366H82.3461Z" fill="#131614"/>
<path fill-rule="evenodd" clip-rule="evenodd" d="M97.0317 8.62891H93.2896H90.1776H86.4355V11.6366H90.1776V27.8225H93.2896V11.6366H97.0317V8.62891Z" fill="#131614"/>
<path fill-rule="evenodd" clip-rule="evenodd" d="M108.508 8.62891L105.792 17.0258L103.076 8.62891H99.8594L104.236 20.7307V27.8225H107.348V20.7307L111.724 8.62891H108.508Z" fill="#131614"/>
<path fill-rule="evenodd" clip-rule="evenodd" d="M117.461 11.9691H117.785C118.239 12.8986 118.693 13.2804 119.385 13.2804C119.94 13.2804 120.322 12.9781 120.322 12.4158C120.322 11.7817 119.789 11.6161 119.039 11.4145C118.283 11.2124 117.526 10.9678 117.526 10.0455C117.526 9.30311 118.088 8.70508 118.967 8.70508C119.436 8.70508 119.896 8.90673 120.17 9.22398L120.314 8.72696H120.667V10.276H120.343C119.976 9.36073 119.479 9.04384 118.931 9.04384C118.455 9.04384 118.088 9.33921 118.088 9.86541C118.088 10.5284 118.657 10.6724 119.327 10.8522C120.141 11.0611 120.884 11.2704 120.884 12.1926C120.884 13.0138 120.249 13.6265 119.371 13.6265C118.787 13.6265 118.319 13.4102 117.973 13.0426L117.814 13.6046H117.461V11.9691Z" fill="#131614"/>
<path fill-rule="evenodd" clip-rule="evenodd" d="M125.74 10.2188C126.281 10.2188 126.583 10.579 126.583 11.2493V13.1367H127.124V13.5116H125.568V13.1367H126.028V11.4939C126.028 11.1844 125.985 10.9535 125.848 10.8095C125.755 10.7158 125.625 10.68 125.459 10.68C125.005 10.68 124.559 11.2059 124.559 11.7248V13.1367H125.019V13.5116H123.543V13.1367H123.997V11.4939C123.997 11.1844 123.961 10.9535 123.824 10.8095C123.723 10.7158 123.601 10.68 123.435 10.68C122.974 10.68 122.534 11.2059 122.534 11.7248V13.1367H122.988V13.5116H121.432V13.1367H121.972V10.6439H121.432V10.2691H122.52V11.1049C122.902 10.4423 123.312 10.2188 123.708 10.2188C124.206 10.2188 124.501 10.4926 124.544 11.0761C124.933 10.435 125.337 10.2188 125.74 10.2188Z" fill="#131614"/>
<path fill-rule="evenodd" clip-rule="evenodd" d="M129.53 12.4884V11.8473C129.466 11.8688 129.35 11.8903 129.177 11.9191C128.442 12.0344 128.176 12.1857 128.176 12.6182C128.176 12.9785 128.363 13.1801 128.738 13.1801C129.12 13.1801 129.53 12.8632 129.53 12.4884ZM127.563 12.7188C127.563 12.5099 127.636 12.3009 127.787 12.1427C128.039 11.8903 128.385 11.7966 129.019 11.6956C129.458 11.6238 129.53 11.6092 129.53 11.4867V11.1698C129.53 10.6943 129.293 10.5214 128.86 10.5214C128.608 10.5214 128.392 10.5863 128.241 10.7088C128.363 10.7734 128.435 10.889 128.435 11.0403C128.435 11.2493 128.291 11.4075 128.061 11.4075C127.83 11.4075 127.679 11.242 127.679 11.0184C127.679 10.5502 128.284 10.2188 128.954 10.2188C129.696 10.2188 130.092 10.5356 130.092 11.1913V12.8847C130.092 13.1079 130.165 13.1728 130.309 13.1728C130.431 13.1728 130.518 13.0722 130.597 12.8847L130.813 13.0073C130.647 13.3745 130.467 13.5477 130.143 13.5477C129.847 13.5477 129.603 13.3745 129.595 12.9497H129.574C129.358 13.3169 128.932 13.5619 128.493 13.5619C127.902 13.5619 127.563 13.2231 127.563 12.7188Z" fill="#131614"/>
<path fill-rule="evenodd" clip-rule="evenodd" d="M130.842 13.1368H131.454V8.95061H130.842V8.56152H132.016V13.1368H132.622V13.5113H130.842V13.1368Z" fill="#131614"/>
<path fill-rule="evenodd" clip-rule="evenodd" d="M132.888 13.1368H133.5V8.95061H132.888V8.56152H134.062V13.1368H134.668V13.5113H132.888V13.1368Z" fill="#131614"/>
<path fill-rule="evenodd" clip-rule="evenodd" d="M117.296 20.3415H118.096V16.3858H117.296V16.0186H121.324V17.5169H121.043C120.826 16.5444 120.711 16.3858 120.257 16.3858H118.701V18.2233H119.364C119.782 18.2233 119.854 18.1438 119.948 17.4885H120.243V19.3256H119.948C119.868 18.6412 119.782 18.5474 119.364 18.5474H118.701V20.3415H119.58V20.7164H117.296V20.3415Z" fill="#131614"/>
<path fill-rule="evenodd" clip-rule="evenodd" d="M122.196 16.3359C122.196 16.0981 122.362 15.918 122.606 15.918C122.83 15.918 123.003 16.0835 123.003 16.3286C123.003 16.5736 122.83 16.7392 122.606 16.7392C122.368 16.7392 122.196 16.5882 122.196 16.3359ZM121.756 20.342H122.368V17.8488H121.756V17.4743H122.923V20.342H123.536V20.7165H121.756V20.342Z" fill="#131614"/>
<path fill-rule="evenodd" clip-rule="evenodd" d="M123.903 20.3418H124.444V17.8486H123.903V17.4742H124.991V18.3099C125.373 17.647 125.798 17.4238 126.216 17.4238C126.764 17.4238 127.095 17.7841 127.095 18.447V20.3418H127.636V20.7167H126.043V20.3418H126.541V18.699C126.541 18.3964 126.49 18.1659 126.353 18.0292C126.252 17.9209 126.108 17.8778 125.942 17.8778C125.467 17.8778 125.006 18.4037 125.006 18.9295V20.3418H125.496V20.7167H123.903V20.3418Z" fill="#131614"/>
<path fill-rule="evenodd" clip-rule="evenodd" d="M130.049 19.6934V19.0524C129.984 19.0739 129.869 19.0954 129.696 19.1242C128.961 19.2394 128.695 19.3908 128.695 19.8233C128.695 20.1835 128.882 20.3852 129.256 20.3852C129.638 20.3852 130.049 20.0683 130.049 19.6934ZM128.082 19.9239C128.082 19.715 128.154 19.506 128.305 19.3477C128.558 19.0954 128.904 19.0017 129.537 18.9007C129.977 18.8288 130.049 18.8143 130.049 18.6917V18.3748C130.049 17.8993 129.811 17.7265 129.379 17.7265C129.127 17.7265 128.911 17.7914 128.759 17.9139C128.882 17.9785 128.954 18.0941 128.954 18.2454C128.954 18.4543 128.81 18.6126 128.579 18.6126C128.349 18.6126 128.197 18.447 128.197 18.2235C128.197 17.7553 128.803 17.4238 129.472 17.4238C130.215 17.4238 130.611 17.7407 130.611 18.3964V20.0898C130.611 20.313 130.683 20.3779 130.827 20.3779C130.949 20.3779 131.036 20.2772 131.115 20.0898L131.331 20.2123C131.166 20.5795 130.985 20.7528 130.661 20.7528C130.366 20.7528 130.121 20.5795 130.114 20.1547H130.092C129.876 20.5219 129.451 20.767 129.012 20.767C128.42 20.767 128.082 20.4282 128.082 19.9239Z" fill="#131614"/>
<path fill-rule="evenodd" clip-rule="evenodd" d="M131.476 20.3418H132.016V17.8486H131.476V17.4742H132.564V18.3099C132.946 17.647 133.37 17.4238 133.789 17.4238C134.336 17.4238 134.667 17.7841 134.667 18.447V20.3418H135.208V20.7167H133.615V20.3418H134.113V18.699C134.113 18.3964 134.062 18.1659 133.925 18.0292C133.824 17.9209 133.68 17.8778 133.514 17.8778C133.039 17.8778 132.578 18.4037 132.578 18.9295V20.3418H133.068V20.7167H131.476V20.3418Z" fill="#131614"/>
<path fill-rule="evenodd" clip-rule="evenodd" d="M135.604 19.1598C135.604 18.1366 136.266 17.416 137.239 17.416C137.945 17.416 138.464 17.913 138.464 18.3313C138.464 18.6121 138.305 18.8283 138.046 18.8283C137.801 18.8283 137.657 18.6482 137.657 18.4392C137.657 18.2664 137.772 18.1078 137.931 18.0502C137.815 17.8773 137.585 17.7187 137.217 17.7187C136.626 17.7187 136.208 18.2445 136.208 19.0876C136.208 19.9092 136.598 20.4062 137.246 20.4062C137.7 20.4062 138.017 20.1469 138.197 19.6641H138.507C138.319 20.392 137.808 20.7811 137.11 20.7811C136.208 20.7811 135.604 20.0962 135.604 19.1598Z" fill="#131614"/>
<path fill-rule="evenodd" clip-rule="evenodd" d="M139.617 18.8137H141.311C141.26 18.1366 141.008 17.7256 140.511 17.7256C140.035 17.7256 139.689 18.0932 139.617 18.8137ZM139.61 19.1237C139.624 19.9664 140.035 20.3989 140.648 20.3989C141.044 20.3989 141.375 20.2476 141.57 19.7648H141.873C141.678 20.435 141.195 20.7807 140.525 20.7807C139.581 20.7807 139.005 20.0962 139.005 19.1306C139.005 18.1435 139.682 17.416 140.547 17.416C141.491 17.416 141.909 18.266 141.887 19.1237H139.61Z" fill="#131614"/>
<path fill-rule="evenodd" clip-rule="evenodd" d="M119.421 27.5466C120.337 27.5466 120.689 27.244 120.689 26.5449C120.689 25.9976 120.286 25.6227 119.393 25.6227H118.701V27.5466H119.421ZM119.414 25.277C120.171 25.277 120.474 24.924 120.474 24.3694C120.474 23.8793 120.236 23.5908 119.443 23.5908H118.701V25.277H119.414ZM117.296 27.5466H118.096V23.5908H117.296V23.2236H119.378C120.776 23.2236 121.122 23.7568 121.122 24.3548C121.122 24.7366 120.87 25.2697 119.94 25.4356V25.4571C120.884 25.5293 121.345 26.0118 121.345 26.5883C121.345 27.2658 120.949 27.9215 119.385 27.9215H117.296V27.5466Z" fill="#131614"/>
<path fill-rule="evenodd" clip-rule="evenodd" d="M123.889 26.8985V26.2575C123.824 26.279 123.709 26.3005 123.535 26.3293C122.801 26.4445 122.534 26.5959 122.534 27.0283C122.534 27.3886 122.722 27.5903 123.096 27.5903C123.478 27.5903 123.889 27.2734 123.889 26.8985ZM121.922 27.129C121.922 26.92 121.994 26.7111 122.145 26.5528C122.397 26.3005 122.743 26.2068 123.377 26.1058C123.817 26.0339 123.889 26.0193 123.889 25.8968V25.5799C123.889 25.1044 123.651 24.9316 123.219 24.9316C122.967 24.9316 122.75 24.9965 122.599 25.119C122.722 25.1835 122.794 25.2991 122.794 25.4505C122.794 25.6594 122.649 25.8177 122.419 25.8177C122.188 25.8177 122.037 25.6521 122.037 25.4286C122.037 24.9604 122.642 24.6289 123.312 24.6289C124.054 24.6289 124.451 24.9458 124.451 25.6014V27.2949C124.451 27.5181 124.523 27.583 124.667 27.583C124.789 27.583 124.876 27.4823 124.955 27.2949L125.171 27.4174C125.005 27.7846 124.825 27.9578 124.501 27.9578C124.206 27.9578 123.961 27.7846 123.953 27.3598H123.932C123.716 27.727 123.291 27.9721 122.851 27.9721C122.26 27.9721 121.922 27.6333 121.922 27.129Z" fill="#131614"/>
<path fill-rule="evenodd" clip-rule="evenodd" d="M125.315 27.5469H125.856V25.0537H125.315V24.6792H126.404V25.515C126.785 24.8521 127.211 24.6289 127.628 24.6289C128.176 24.6289 128.507 24.9892 128.507 25.6521V27.5469H129.048V27.9217H127.455V27.5469H127.953V25.9041C127.953 25.6014 127.902 25.371 127.765 25.2342C127.664 25.1259 127.52 25.0829 127.354 25.0829C126.879 25.0829 126.418 25.6087 126.418 26.1346V27.5469H126.908V27.9217H125.315V27.5469Z" fill="#131614"/>
<path fill-rule="evenodd" clip-rule="evenodd" d="M131.317 25.9546L132.441 27.547H132.852V27.9215H131.375V27.5539H131.807L130.95 26.3075L130.424 26.8407V27.547H130.87V27.9215H129.321V27.547H129.862V23.3608H129.321V22.9717H130.424V26.4374L131.735 25.0466H131.195V24.6794H132.693V25.0539H132.204L131.317 25.9546Z" fill="#131614"/>
</svg>
